<svg width="108" height="73" viewBox="0 0 108 73" fill="none" xmlns="http://www.w3.org/2000/svg">
<g clip-path="url(#clip0_85_2269)">
<path d="M85.6675 0H18.0142V60.4552H85.6675V0Z" fill="#F5931E"/>
<path d="M86.5451 0H17.1216V10.0685H86.5451V0Z" fill="#F5931E"/>
<path fill-rule="evenodd" clip-rule="evenodd" d="M85.6526 60.4551H60.2603L18.0142 10.0684H85.6526V60.4551Z" fill="#F5931E"/>
<path fill-rule="evenodd" clip-rule="evenodd" d="M79.8513 0H72.4136V13.909L74.0201 13.1676L75.4779 13.8497L77.4861 12.6782L79.8513 13.909V0Z" fill="#ED7425"/>
<path fill-rule="evenodd" clip-rule="evenodd" d="M31.2531 0H23.8303V13.909L25.422 13.1676L26.8798 13.8497L28.888 12.6782L31.2531 13.909V0Z" fill="#ED7425"/>
<path d="M107.579 60.4553H0V62.7537H107.579V60.4553Z" fill="#1A2A3A"/>
<path d="M13.0904 62.7686H0.461182V65.0669H13.0904V62.7686Z" fill="#5A514E"/>
<path d="M13.5515 65.0669H0V70.7017H13.5515V65.0669Z" fill="#5A514E"/>
<path d="M107.579 70.7017H0V73.0001H107.579V70.7017Z" fill="#1A2A3A"/>
<path d="M107.118 62.7686H94.4885V65.0669H107.118V62.7686Z" fill="#5A514E"/>
<path d="M107.579 65.0669H94.0273V70.7017H107.579V65.0669Z" fill="#5A514E"/>
<path d="M60.0968 62.7686H47.4675V65.0669H60.0968V62.7686Z" fill="#5A514E"/>
<path d="M60.5727 65.0669H47.0212V70.7017H60.5727V65.0669Z" fill="#5A514E"/>
<path d="M50.6955 43.9365H23.7412V56.3775H50.6955V43.9365Z" fill="#E1EEF6"/>
<path d="M26.1065 44.8411H25.2734V53.8715H26.1065V44.8411Z" fill="#1A2A3A"/>
<path d="M27.7725 44.8411H26.9395V53.8715H27.7725V44.8411Z" fill="#1A2A3A"/>
<path d="M32.8003 44.8411H31.9673V53.8715H32.8003V44.8411Z" fill="#1A2A3A"/>
<path d="M37.8281 44.8411H36.9951V53.8715H37.8281V44.8411Z" fill="#1A2A3A"/>
<path d="M42.2014 44.8411H41.3684V53.8715H42.2014V44.8411Z" fill="#1A2A3A"/>
<path d="M28.5906 44.8411H28.1741V53.8715H28.5906V44.8411Z" fill="#1A2A3A"/>
<path d="M33.6184 44.8411H33.2019V53.8715H33.6184V44.8411Z" fill="#1A2A3A"/>
<path d="M38.6314 44.8411H38.2148V53.8715H38.6314V44.8411Z" fill="#1A2A3A"/>
<path d="M43.0198 44.8411H42.6033V53.8715H43.0198V44.8411Z" fill="#1A2A3A"/>
<path d="M30.4053 44.8411H29.5723V53.8715H30.4053V44.8411Z" fill="#1A2A3A"/>
<path d="M35.4331 44.8411H34.6001V53.8715H35.4331V44.8411Z" fill="#1A2A3A"/>
<path d="M40.4463 44.8411H39.6133V53.8715H40.4463V44.8411Z" fill="#1A2A3A"/>
<path d="M44.8345 44.8411H44.0015V53.8715H44.8345V44.8411Z" fill="#1A2A3A"/>
<path d="M29.3045 44.8411H28.8879V55.473H29.3045V44.8411Z" fill="#1A2A3A"/>
<path d="M34.3176 44.8411H33.9011V53.8715H34.3176V44.8411Z" fill="#1A2A3A"/>
<path d="M39.3455 44.8411H38.929V53.8715H39.3455V44.8411Z" fill="#1A2A3A"/>
<path d="M43.7188 44.8411H43.3022V53.8715H43.7188V44.8411Z" fill="#1A2A3A"/>
<path d="M26.7461 44.8411H26.3296V53.8715H26.7461V44.8411Z" fill="#1A2A3A"/>
<path d="M31.7739 44.8411H31.3574V53.8715H31.7739V44.8411Z" fill="#1A2A3A"/>
<path d="M36.8018 44.8411H36.3853V53.8715H36.8018V44.8411Z" fill="#1A2A3A"/>
<path d="M41.1751 44.8411H40.7585V53.8715H41.1751V44.8411Z" fill="#1A2A3A"/>
<path d="M46.5154 44.8411H45.6824V53.8715H46.5154V44.8411Z" fill="#1A2A3A"/>
<path d="M47.3335 44.8411H46.917V53.8715H47.3335V44.8411Z" fill="#1A2A3A"/>
<path d="M49.1485 44.8411H48.3154V53.8715H49.1485V44.8411Z" fill="#1A2A3A"/>
<path d="M48.0476 44.8411H47.6311V53.8715H48.0476V44.8411Z" fill="#1A2A3A"/>
<path d="M45.5039 44.8411H45.0874V53.8715H45.5039V44.8411Z" fill="#1A2A3A"/>
<path fill-rule="evenodd" clip-rule="evenodd" d="M49.5796 34.9654C49.2077 33.4529 47.8243 32.3259 46.2029 32.3259C44.5815 32.3259 43.1981 33.4529 42.8262 34.9654H49.5796Z" fill="#435D76"/>
<path fill-rule="evenodd" clip-rule="evenodd" d="M46.5301 39.3991C46.5004 40.1109 45.9203 40.6596 45.2062 40.6596C44.4922 40.6596 43.9121 40.0961 43.8823 39.3991H44.5368C44.5666 39.7402 44.8492 40.0219 45.2062 40.0219C45.5632 40.0219 45.8459 39.755 45.8756 39.3991V34.7134H46.5301V39.3991Z" fill="#435D76"/>
<path d="M38.7207 35.7217H38.0959V40.185H38.7207V35.7217Z" fill="#435D76"/>
<path fill-rule="evenodd" clip-rule="evenodd" d="M40.8776 32.3259V35.2323C40.8776 36.5817 39.7769 37.679 38.4232 37.679C37.0695 37.679 35.9688 36.5817 35.9688 35.2323V32.3259H40.8776Z" fill="#435D76"/>
<path fill-rule="evenodd" clip-rule="evenodd" d="M37.01 40.1851H39.8214C40.2082 40.1851 40.5205 40.4075 40.5205 40.6744H36.3257C36.3257 40.4075 36.6381 40.1851 37.0248 40.1851H37.01Z" fill="#435D76"/>
<path fill-rule="evenodd" clip-rule="evenodd" d="M29.0665 35.7513V40.0663H27.4897V35.7513H26.4038L27.341 34.0312L28.2781 32.3259L29.2153 34.0312L30.1524 35.7513H29.0665Z" fill="#435D76"/>
<path fill-rule="evenodd" clip-rule="evenodd" d="M33.3209 35.7513V40.0663H31.7441V35.7513H30.6582L31.5954 34.0312L32.5325 32.3259L33.4697 34.0312L34.4068 35.7513H33.3209Z" fill="#435D76"/>
<path d="M33.9606 40.0664H26.865V40.6595H33.9606V40.0664Z" fill="#435D76"/>
<path fill-rule="evenodd" clip-rule="evenodd" d="M66.2848 11.9961C62.1049 15.6735 61.7181 22.0349 65.4221 26.2016C69.1112 30.3684 75.4927 30.7539 79.6727 27.0617C83.8527 23.3842 84.2395 17.0229 80.5355 12.8561C76.8464 8.68933 70.4648 8.30379 66.2848 11.9961Z" fill="#AAD3EF"/>
<path fill-rule="evenodd" clip-rule="evenodd" d="M85.712 16.9488C87.1401 23.9626 82.6031 30.7985 75.567 32.2368C68.5309 33.6603 61.6734 29.1377 60.2305 22.1239C58.8024 15.1101 63.3394 8.27418 70.3755 6.83583C77.4116 5.41231 84.2691 9.93495 85.712 16.9488ZM82.4394 17.616C81.3833 12.4113 76.2661 9.04525 71.0449 10.0981C65.8236 11.1509 62.4469 16.2518 63.503 21.4566C64.5592 26.6613 69.6763 30.0274 74.8976 28.9746C80.1189 27.9218 83.4956 22.8208 82.4394 17.616Z" fill="#435D76"/>
<path d="M81.1706 26.3749L78.7864 28.4775L83.2515 33.5085L85.6357 31.4058L81.1706 26.3749Z" fill="#435D76"/>
<path fill-rule="evenodd" clip-rule="evenodd" d="M83.1238 30.9764C81.6065 32.311 81.4577 34.639 82.8114 36.1515L96.4521 51.5285C97.7909 53.041 100.126 53.1893 101.644 51.8399C103.161 50.5054 103.295 48.1773 101.956 46.6648L88.3153 31.2878C86.9765 29.7753 84.6411 29.627 83.1238 30.9764Z" fill="#9EB134"/>
<path fill-rule="evenodd" clip-rule="evenodd" d="M83.1238 30.9763C81.6065 32.3109 81.4577 34.6389 82.8114 36.1514L88.3302 31.2877C86.9914 29.7752 84.6559 29.6418 83.1386 30.9763H83.1238ZM83.8675 37.3525L89.3863 32.4888L100.915 45.4636L95.396 50.3273L83.8675 37.3525ZM96.4521 51.5284C97.7909 53.0409 100.126 53.1892 101.644 51.8398C103.161 50.5053 103.295 48.1772 101.956 46.6647L96.4521 51.5284Z" fill="#1A2A3A"/>
<path fill-rule="evenodd" clip-rule="evenodd" d="M77.3073 16.1331C77.6644 16.6225 78.3635 16.7263 78.8544 16.3556C79.3453 15.9997 79.4494 15.3028 79.0775 14.8134C78.8395 14.502 78.5866 14.2055 78.304 13.9089C76.9503 12.5299 75.2099 11.7291 73.4249 11.5512C71.6398 11.3732 69.8101 11.8181 68.3077 12.9302C68.04 13.123 67.7871 13.3454 67.5193 13.6123C67.0879 14.0423 67.0731 14.7393 67.5193 15.1693C67.9507 15.5993 68.6499 15.6142 69.0812 15.1841C69.2449 15.021 69.4383 14.8579 69.6465 14.7096C70.7027 13.9237 71.982 13.6123 73.2315 13.7458C74.5108 13.8792 75.7603 14.4575 76.7421 15.451C76.9355 15.6438 77.1288 15.8662 77.3073 16.1183V16.1331Z" fill="#E1EFFA"/>
</g>
<defs>
<clipPath id="clip0_85_2269">
<rect width="107.579" height="73" fill="white"/>
</clipPath>
</defs>
</svg>
