<svg width="142" height="68" viewBox="0 0 142 68" fill="none" xmlns="http://www.w3.org/2000/svg">
<g clip-path="url(#clip0_85_2113)">
<path d="M5.6014 51.5371H136.557C137.936 51.5371 139.049 52.6559 139.049 54.0412V64.0396C139.049 65.4248 137.936 66.5436 136.557 66.5436H5.6014C4.2231 66.5436 3.10986 65.4248 3.10986 64.0396V54.0412C3.10986 52.6559 4.2231 51.5371 5.6014 51.5371Z" fill="#77716F"/>
<path fill-rule="evenodd" clip-rule="evenodd" d="M8.94126 50.0276H133.059C137.971 50.0276 142 54.0767 142 59.0137C142 63.9508 137.971 67.9999 133.059 67.9999H8.94126C4.02887 67.9999 0 63.9508 0 59.0137C0 54.0767 4.02887 50.0276 8.94126 50.0276ZM8.94126 53.1532C5.74291 53.1532 3.11 55.7816 3.11 59.0137C3.11 62.2282 5.72524 64.8743 8.94126 64.8743H133.059C136.257 64.8743 138.89 62.2459 138.89 59.0137C138.89 55.7993 136.275 53.1532 133.059 53.1532H8.94126Z" fill="#5A514E"/>
<path d="M48.8764 14.2783H9.18848V50.0454H48.8764V14.2783Z" fill="#FFA146"/>
<path d="M51.156 14.2783H48.8765V50.0454H51.156V14.2783Z" fill="#DD3E13"/>
<path d="M90.8442 0H51.1562V50.0987H90.8442V0Z" fill="#FFA146"/>
<path d="M93.1232 14.2783H90.8438V50.0454H93.1232V14.2783Z" fill="#DD3E13"/>
<path d="M132.811 14.2783H93.1235V50.0454H132.811V14.2783Z" fill="#FFA146"/>
<path d="M60.8571 8.7019H59.9912V14.8999H60.8571V8.7019Z" fill="#435D76"/>
<path fill-rule="evenodd" clip-rule="evenodd" d="M63.8079 3.97803V8.00937C63.8079 9.87408 62.2883 11.4191 60.4152 11.4191C58.5421 11.4191 57.0225 9.89184 57.0225 8.00937V3.97803H63.8079Z" fill="#435D76"/>
<path fill-rule="evenodd" clip-rule="evenodd" d="M58.489 14.9177H62.3588C62.8889 14.9177 63.313 15.2196 63.313 15.5926H57.5171C57.5171 15.2196 57.9412 14.9177 58.4713 14.9177H58.489Z" fill="#435D76"/>
<path fill-rule="evenodd" clip-rule="evenodd" d="M16.4336 23.0338V28.9653H14.2778V23.0338H12.7935L14.0657 20.6718L15.3557 18.3098L16.628 20.6718L17.9179 23.0338H16.4336Z" fill="#435D76"/>
<path fill-rule="evenodd" clip-rule="evenodd" d="M22.2295 23.0338V28.9653H20.0913V23.0338H18.5894L19.8793 20.6718L21.1692 18.3098L22.4415 20.6718L23.7315 23.0338H22.2295Z" fill="#435D76"/>
<path fill-rule="evenodd" clip-rule="evenodd" d="M13.4121 28.9653H23.0955V29.8H13.4121V28.9653Z" fill="#435D76"/>
<path fill-rule="evenodd" clip-rule="evenodd" d="M106.341 21.9149C105.828 19.8193 103.92 18.2388 101.676 18.2388C99.4316 18.2388 97.5409 19.8016 97.0107 21.9149H106.323H106.341Z" fill="#435D76"/>
<path fill-rule="evenodd" clip-rule="evenodd" d="M102.135 28.095C102.1 29.0718 101.287 29.8532 100.315 29.8532C99.3433 29.8532 98.5305 29.0718 98.4951 28.095H99.3963C99.4316 28.5745 99.8381 28.9652 100.333 28.9652C100.828 28.9652 101.216 28.5923 101.269 28.095V21.5774H102.171V28.095H102.135Z" fill="#435D76"/>
<path fill-rule="evenodd" clip-rule="evenodd" d="M15.3731 53.1711C14.896 53.1711 14.5249 53.5618 14.5249 54.0236H12.1924C12.1924 53.5618 11.8037 53.1711 11.3442 53.1711H15.3908H15.3731Z" fill="#1A2A3A"/>
<path fill-rule="evenodd" clip-rule="evenodd" d="M19.3492 53.1711C18.8721 53.1711 18.501 53.5618 18.501 54.0236H16.1685C16.1685 53.5618 15.7797 53.1711 15.3203 53.1711H19.3669H19.3492Z" fill="#1A2A3A"/>
<path fill-rule="evenodd" clip-rule="evenodd" d="M23.3248 53.1711C22.8477 53.1711 22.4766 53.5618 22.4766 54.0236H20.1441C20.1441 53.5618 19.7553 53.1711 19.2959 53.1711H23.3424H23.3248Z" fill="#1A2A3A"/>
<path fill-rule="evenodd" clip-rule="evenodd" d="M27.3008 53.1711C26.8414 53.1711 26.4527 53.5618 26.4527 54.0236H24.1202C24.1202 53.5618 23.7314 53.1711 23.272 53.1711H27.3185H27.3008Z" fill="#1A2A3A"/>
<path fill-rule="evenodd" clip-rule="evenodd" d="M31.2764 53.1711C30.7993 53.1711 30.4282 53.5618 30.4282 54.0236H28.0957C28.0957 53.5618 27.707 53.1711 27.2476 53.1711H31.2941H31.2764Z" fill="#1A2A3A"/>
<path fill-rule="evenodd" clip-rule="evenodd" d="M35.2525 53.1711C34.7754 53.1711 34.4043 53.5618 34.4043 54.0236H32.0718C32.0718 53.5618 31.6831 53.1711 31.2236 53.1711H35.2702H35.2525Z" fill="#1A2A3A"/>
<path fill-rule="evenodd" clip-rule="evenodd" d="M39.2281 53.1711C38.7687 53.1711 38.3799 53.5618 38.3799 54.0236H36.0474C36.0474 53.5618 35.6587 53.1711 35.1992 53.1711H39.2458H39.2281Z" fill="#1A2A3A"/>
<path fill-rule="evenodd" clip-rule="evenodd" d="M43.2042 53.1711C42.7447 53.1711 42.356 53.5618 42.356 54.0236H40.0235C40.0235 53.5618 39.6347 53.1711 39.1753 53.1711H43.2218H43.2042Z" fill="#1A2A3A"/>
<path fill-rule="evenodd" clip-rule="evenodd" d="M47.1797 53.1711C46.7026 53.1711 46.3316 53.5618 46.3316 54.0236H43.9991C43.9991 53.5618 43.6103 53.1711 43.1509 53.1711H47.1974H47.1797Z" fill="#1A2A3A"/>
<path fill-rule="evenodd" clip-rule="evenodd" d="M51.1558 53.1711C50.6787 53.1711 50.3076 53.5618 50.3076 54.0236H47.9751C47.9751 53.5618 47.5864 53.1711 47.127 53.1711H51.1735H51.1558Z" fill="#1A2A3A"/>
<path fill-rule="evenodd" clip-rule="evenodd" d="M55.1319 53.1711C54.6548 53.1711 54.2837 53.5618 54.2837 54.0236H51.9512C51.9512 53.5618 51.5625 53.1711 51.103 53.1711H55.1496H55.1319Z" fill="#1A2A3A"/>
<path fill-rule="evenodd" clip-rule="evenodd" d="M59.1075 53.1711C58.6304 53.1711 58.2593 53.5618 58.2593 54.0236H55.9268C55.9268 53.5618 55.538 53.1711 55.0786 53.1711H59.1252H59.1075Z" fill="#1A2A3A"/>
<path fill-rule="evenodd" clip-rule="evenodd" d="M63.0836 53.1711C62.6065 53.1711 62.2354 53.5618 62.2354 54.0236H59.9029C59.9029 53.5618 59.5141 53.1711 59.0547 53.1711H63.1012H63.0836Z" fill="#1A2A3A"/>
<path fill-rule="evenodd" clip-rule="evenodd" d="M67.0591 53.1711C66.582 53.1711 66.211 53.5618 66.211 54.0236H63.8785C63.8785 53.5618 63.4897 53.1711 63.0303 53.1711H67.0768H67.0591Z" fill="#1A2A3A"/>
<path fill-rule="evenodd" clip-rule="evenodd" d="M71.0352 53.1711C70.5581 53.1711 70.187 53.5618 70.187 54.0236H67.8545C67.8545 53.5618 67.4658 53.1711 67.0063 53.1711H71.0529H71.0352Z" fill="#1A2A3A"/>
<path fill-rule="evenodd" clip-rule="evenodd" d="M75.0108 53.1711C74.5514 53.1711 74.1626 53.5618 74.1626 54.0236H71.8301C71.8301 53.5618 71.4414 53.1711 70.9819 53.1711H75.0285H75.0108Z" fill="#1A2A3A"/>
<path fill-rule="evenodd" clip-rule="evenodd" d="M78.9869 53.1711C78.5274 53.1711 78.1387 53.5618 78.1387 54.0236H75.8062C75.8062 53.5618 75.4174 53.1711 74.958 53.1711H79.0045H78.9869Z" fill="#1A2A3A"/>
<path fill-rule="evenodd" clip-rule="evenodd" d="M82.9625 53.1711C82.503 53.1711 82.1143 53.5618 82.1143 54.0236H79.7818C79.7818 53.5618 79.393 53.1711 78.9336 53.1711H82.9801H82.9625Z" fill="#1A2A3A"/>
<path fill-rule="evenodd" clip-rule="evenodd" d="M86.9385 53.1711C86.4614 53.1711 86.0904 53.5618 86.0904 54.0236H83.7579C83.7579 53.5618 83.3691 53.1711 82.9097 53.1711H86.9562H86.9385Z" fill="#1A2A3A"/>
<path fill-rule="evenodd" clip-rule="evenodd" d="M90.9146 53.1711C90.4375 53.1711 90.0664 53.5618 90.0664 54.0236H87.7339C87.7339 53.5618 87.3452 53.1711 86.8857 53.1711H90.9323H90.9146Z" fill="#1A2A3A"/>
<path fill-rule="evenodd" clip-rule="evenodd" d="M94.8902 53.1711C94.4131 53.1711 94.042 53.5618 94.042 54.0236H91.7095C91.7095 53.5618 91.3208 53.1711 90.8613 53.1711H94.9079H94.8902Z" fill="#1A2A3A"/>
<path fill-rule="evenodd" clip-rule="evenodd" d="M98.8663 53.1711C98.3892 53.1711 98.0181 53.5618 98.0181 54.0236H95.6856C95.6856 53.5618 95.2968 53.1711 94.8374 53.1711H98.8839H98.8663Z" fill="#1A2A3A"/>
<path fill-rule="evenodd" clip-rule="evenodd" d="M102.842 53.1711C102.365 53.1711 101.994 53.5618 101.994 54.0236H99.6612C99.6612 53.5618 99.2724 53.1711 98.813 53.1711H102.86H102.842Z" fill="#1A2A3A"/>
<path fill-rule="evenodd" clip-rule="evenodd" d="M106.818 53.1711C106.341 53.1711 105.97 53.5618 105.97 54.0236H103.637C103.637 53.5618 103.248 53.1711 102.789 53.1711H106.836H106.818Z" fill="#1A2A3A"/>
<path fill-rule="evenodd" clip-rule="evenodd" d="M110.794 53.1711C110.316 53.1711 109.945 53.5618 109.945 54.0236H107.613C107.613 53.5618 107.224 53.1711 106.765 53.1711H110.811H110.794Z" fill="#1A2A3A"/>
<path fill-rule="evenodd" clip-rule="evenodd" d="M114.77 53.1711C114.292 53.1711 113.921 53.5618 113.921 54.0236H111.589C111.589 53.5618 111.2 53.1711 110.741 53.1711H114.787H114.77Z" fill="#1A2A3A"/>
<path fill-rule="evenodd" clip-rule="evenodd" d="M118.746 53.1711C118.269 53.1711 117.897 53.5618 117.897 54.0236H115.565C115.565 53.5618 115.176 53.1711 114.717 53.1711H118.763H118.746Z" fill="#1A2A3A"/>
<path fill-rule="evenodd" clip-rule="evenodd" d="M122.721 53.1711C122.244 53.1711 121.873 53.5618 121.873 54.0236H119.541C119.541 53.5618 119.152 53.1711 118.692 53.1711H122.739H122.721Z" fill="#1A2A3A"/>
<path fill-rule="evenodd" clip-rule="evenodd" d="M126.697 53.1711C126.22 53.1711 125.849 53.5618 125.849 54.0236H123.517C123.517 53.5618 123.128 53.1711 122.668 53.1711H126.715H126.697Z" fill="#1A2A3A"/>
<path fill-rule="evenodd" clip-rule="evenodd" d="M130.655 53.1711C130.196 53.1711 129.807 53.5618 129.807 54.0236H127.475C127.475 53.5618 127.086 53.1711 126.626 53.1711H130.673H130.655Z" fill="#1A2A3A"/>
<path fill-rule="evenodd" clip-rule="evenodd" d="M12.1749 64.022H14.5074C14.5074 64.5015 14.8962 64.8744 15.3556 64.8744H11.3091C11.7862 64.8744 12.1573 64.4837 12.1573 64.022H12.1749Z" fill="#1A2A3A"/>
<path fill-rule="evenodd" clip-rule="evenodd" d="M16.151 64.022H18.4835C18.4835 64.5015 18.8723 64.8744 19.3317 64.8744H15.2852C15.7623 64.8744 16.1333 64.4837 16.1333 64.022H16.151Z" fill="#1A2A3A"/>
<path fill-rule="evenodd" clip-rule="evenodd" d="M20.1266 64.022H22.4591C22.4591 64.5015 22.8478 64.8744 23.3073 64.8744H19.2607C19.7202 64.8744 20.1089 64.4837 20.1089 64.022H20.1266Z" fill="#1A2A3A"/>
<path fill-rule="evenodd" clip-rule="evenodd" d="M24.1027 64.022H26.4352C26.4352 64.5015 26.8239 64.8744 27.2834 64.8744H23.2368C23.6962 64.8744 24.085 64.4837 24.085 64.022H24.1027Z" fill="#1A2A3A"/>
<path fill-rule="evenodd" clip-rule="evenodd" d="M28.0783 64.022H30.4108C30.4108 64.5015 30.7995 64.8744 31.2589 64.8744H27.2124C27.6718 64.8744 28.0606 64.4837 28.0606 64.022H28.0783Z" fill="#1A2A3A"/>
<path fill-rule="evenodd" clip-rule="evenodd" d="M32.0543 64.022H34.3868C34.3868 64.5015 34.7756 64.8744 35.235 64.8744H31.1885C31.6656 64.8744 32.0367 64.4837 32.0367 64.022H32.0543Z" fill="#1A2A3A"/>
<path fill-rule="evenodd" clip-rule="evenodd" d="M36.0299 64.022H38.3624C38.3624 64.5015 38.7512 64.8744 39.2106 64.8744H35.1641C35.6412 64.8744 36.0122 64.4837 36.0122 64.022H36.0299Z" fill="#1A2A3A"/>
<path fill-rule="evenodd" clip-rule="evenodd" d="M40.006 64.022H42.3385C42.3385 64.5015 42.7272 64.8744 43.1867 64.8744H39.1401C39.6172 64.8744 39.9883 64.4837 39.9883 64.022H40.006Z" fill="#1A2A3A"/>
<path fill-rule="evenodd" clip-rule="evenodd" d="M43.9816 64.022H46.3141C46.3141 64.5015 46.7028 64.8744 47.1623 64.8744H43.1157C43.5928 64.8744 43.9639 64.4837 43.9639 64.022H43.9816Z" fill="#1A2A3A"/>
<path fill-rule="evenodd" clip-rule="evenodd" d="M47.9577 64.022H50.2902C50.2902 64.5015 50.6789 64.8744 51.1383 64.8744H47.0918C47.5689 64.8744 47.94 64.4837 47.94 64.022H47.9577Z" fill="#1A2A3A"/>
<path fill-rule="evenodd" clip-rule="evenodd" d="M51.9337 64.022H54.2662C54.2662 64.5015 54.655 64.8744 55.1144 64.8744H51.0679C51.545 64.8744 51.9161 64.4837 51.9161 64.022H51.9337Z" fill="#1A2A3A"/>
<path fill-rule="evenodd" clip-rule="evenodd" d="M55.9093 64.022H58.2418C58.2418 64.5015 58.6306 64.8744 59.09 64.8744H55.0435C55.5029 64.8744 55.8916 64.4837 55.8916 64.022H55.9093Z" fill="#1A2A3A"/>
<path fill-rule="evenodd" clip-rule="evenodd" d="M59.8854 64.022H62.2179C62.2179 64.5015 62.6066 64.8744 63.0661 64.8744H59.0195C59.479 64.8744 59.8677 64.4837 59.8677 64.022H59.8854Z" fill="#1A2A3A"/>
<path fill-rule="evenodd" clip-rule="evenodd" d="M63.861 64.022H66.1935C66.1935 64.5015 66.5822 64.8744 67.0417 64.8744H62.9951C63.4545 64.8744 63.8433 64.4837 63.8433 64.022H63.861Z" fill="#1A2A3A"/>
<path fill-rule="evenodd" clip-rule="evenodd" d="M67.837 64.022H70.1695C70.1695 64.5015 70.5583 64.8744 71.0177 64.8744H66.9712C67.4483 64.8744 67.8194 64.4837 67.8194 64.022H67.837Z" fill="#1A2A3A"/>
<path fill-rule="evenodd" clip-rule="evenodd" d="M71.8126 64.022H74.1451C74.1451 64.5015 74.5339 64.8744 74.9933 64.8744H70.9468C71.4239 64.8744 71.795 64.4837 71.795 64.022H71.8126Z" fill="#1A2A3A"/>
<path fill-rule="evenodd" clip-rule="evenodd" d="M75.7887 64.022H78.1212C78.1212 64.5015 78.51 64.8744 78.9694 64.8744H74.9229C75.4 64.8744 75.771 64.4837 75.771 64.022H75.7887Z" fill="#1A2A3A"/>
<path fill-rule="evenodd" clip-rule="evenodd" d="M79.7643 64.022H82.0968C82.0968 64.5015 82.4855 64.8744 82.945 64.8744H78.8984C79.3755 64.8744 79.7466 64.4837 79.7466 64.022H79.7643Z" fill="#1A2A3A"/>
<path fill-rule="evenodd" clip-rule="evenodd" d="M83.7404 64.022H86.0729C86.0729 64.5015 86.4616 64.8744 86.921 64.8744H82.8745C83.3516 64.8744 83.7227 64.4837 83.7227 64.022H83.7404Z" fill="#1A2A3A"/>
<path fill-rule="evenodd" clip-rule="evenodd" d="M87.7164 64.022H90.0489C90.0489 64.5015 90.4377 64.8744 90.8971 64.8744H86.8506C87.3277 64.8744 87.6988 64.4837 87.6988 64.022H87.7164Z" fill="#1A2A3A"/>
<path fill-rule="evenodd" clip-rule="evenodd" d="M91.692 64.022H94.0245C94.0245 64.5015 94.4133 64.8744 94.8727 64.8744H90.8262C91.3033 64.8744 91.6744 64.4837 91.6744 64.022H91.692Z" fill="#1A2A3A"/>
<path fill-rule="evenodd" clip-rule="evenodd" d="M95.6681 64.022H98.0006C98.0006 64.5015 98.3893 64.8744 98.8488 64.8744H94.8022C95.2793 64.8744 95.6504 64.4837 95.6504 64.022H95.6681Z" fill="#1A2A3A"/>
<path fill-rule="evenodd" clip-rule="evenodd" d="M99.6437 64.022H101.976C101.976 64.5015 102.365 64.8744 102.824 64.8744H98.7778C99.2373 64.8744 99.626 64.4837 99.626 64.022H99.6437Z" fill="#1A2A3A"/>
<path fill-rule="evenodd" clip-rule="evenodd" d="M103.62 64.022H105.952C105.952 64.5015 106.341 64.8744 106.8 64.8744H102.754C103.231 64.8744 103.602 64.4837 103.602 64.022H103.62Z" fill="#1A2A3A"/>
<path fill-rule="evenodd" clip-rule="evenodd" d="M107.595 64.022H109.928C109.928 64.5015 110.317 64.8744 110.776 64.8744H106.729C107.207 64.8744 107.578 64.4837 107.578 64.022H107.595Z" fill="#1A2A3A"/>
<path fill-rule="evenodd" clip-rule="evenodd" d="M111.571 64.022H113.904C113.904 64.5015 114.293 64.8744 114.752 64.8744H110.706C111.183 64.8744 111.554 64.4837 111.554 64.022H111.571Z" fill="#1A2A3A"/>
<path fill-rule="evenodd" clip-rule="evenodd" d="M115.547 64.022H117.88C117.88 64.5015 118.269 64.8744 118.728 64.8744H114.682C115.141 64.8744 115.53 64.4837 115.53 64.022H115.547Z" fill="#1A2A3A"/>
<path fill-rule="evenodd" clip-rule="evenodd" d="M119.523 64.022H121.856C121.856 64.5015 122.244 64.8744 122.704 64.8744H118.657C119.117 64.8744 119.505 64.4837 119.505 64.022H119.523Z" fill="#1A2A3A"/>
<path fill-rule="evenodd" clip-rule="evenodd" d="M123.499 64.022H125.832C125.832 64.5015 126.22 64.8744 126.68 64.8744H122.633C123.11 64.8744 123.481 64.4837 123.481 64.022H123.499Z" fill="#1A2A3A"/>
<path fill-rule="evenodd" clip-rule="evenodd" d="M127.475 64.022H129.807C129.807 64.5015 130.196 64.8744 130.655 64.8744H126.609C127.086 64.8744 127.457 64.4837 127.457 64.022H127.475Z" fill="#1A2A3A"/>
<path fill-rule="evenodd" clip-rule="evenodd" d="M13.1469 54.7872C15.4795 57.1314 15.4795 60.9141 13.1469 63.2584C10.8144 65.6026 7.05063 65.6026 4.71813 63.2584C2.38562 60.9141 2.38562 57.1137 4.71813 54.7872C7.05063 52.443 10.8321 52.443 13.1469 54.7872Z" fill="#5A514E"/>
<path fill-rule="evenodd" clip-rule="evenodd" d="M6.96223 60.9851C5.88433 59.9018 5.88433 58.1436 6.96223 57.0603C8.04013 55.977 9.78951 55.977 10.8674 57.0603L6.96223 60.9851Z" fill="#344453"/>
<path fill-rule="evenodd" clip-rule="evenodd" d="M13.1471 54.7871C15.4796 57.1313 15.4796 60.914 13.1471 63.2582C10.8146 65.6025 7.05077 65.6025 4.71826 63.2582L13.1471 54.7871Z" fill="#77716F"/>
<path fill-rule="evenodd" clip-rule="evenodd" d="M10.8852 57.0603C11.9631 58.1436 11.9631 59.9018 10.8852 60.9851C9.80726 62.0684 8.05788 62.0684 6.97998 60.9851L10.8852 57.0603Z" fill="#1A2A3A"/>
<path fill-rule="evenodd" clip-rule="evenodd" d="M137.264 54.7872C139.597 57.1314 139.597 60.9141 137.264 63.2584C134.932 65.6026 131.15 65.6026 128.835 63.2584C126.503 60.9141 126.503 57.1137 128.835 54.7872C131.168 52.443 134.949 52.443 137.264 54.7872Z" fill="#5A514E"/>
<path fill-rule="evenodd" clip-rule="evenodd" d="M131.097 60.9851C130.02 59.9018 130.02 58.1436 131.097 57.0603C132.175 55.977 133.925 55.977 135.003 57.0603L131.097 60.9851Z" fill="#20354A"/>
<path fill-rule="evenodd" clip-rule="evenodd" d="M137.264 54.7871C139.597 57.1313 139.597 60.914 137.264 63.2582C134.932 65.6025 131.15 65.6025 128.835 63.2582L137.264 54.7871Z" fill="#77716F"/>
<path fill-rule="evenodd" clip-rule="evenodd" d="M135.002 57.0603C136.08 58.1436 136.08 59.9018 135.002 60.9851C133.924 62.0684 132.175 62.0684 131.097 60.9851L135.002 57.0603Z" fill="#1A2A3A"/>
<path d="M48.8767 14.2783H29.0327V50.0454H48.8767V14.2783Z" fill="#ED7425"/>
<path d="M90.844 0H71V50.0987H90.844V0Z" fill="#ED7425"/>
<path d="M132.811 14.2783H112.967V50.0454H132.811V14.2783Z" fill="#ED7425"/>
</g>
<defs>
<clipPath id="clip0_85_2113">
<rect width="142" height="68" fill="white"/>
</clipPath>
</defs>
</svg>
