<svg width="273" height="184" viewBox="0 0 273 184" fill="none" xmlns="http://www.w3.org/2000/svg">
<g clip-path="url(#clip0_85_2339)">
<path d="M1.29094 0.237793H9.44425C10.1577 0.237793 10.7352 0.815448 10.7352 1.52902V182.709C10.7352 183.422 10.1577 184 9.44425 184H1.29094C0.577526 184 0 183.422 0 182.709V1.52902C0 0.815448 0.577526 0.237793 1.29094 0.237793Z" fill="#5A514E"/>
<path d="M140.509 0H132.355C131.642 0 131.064 0.578102 131.064 1.29123V182.471C131.064 183.184 131.642 183.762 132.355 183.762H140.509C141.222 183.762 141.8 183.184 141.8 182.471V1.29123C141.8 0.578102 141.222 0 140.509 0Z" fill="#5A514E"/>
<path d="M263.522 0H271.675C272.389 0 272.966 0.577655 272.966 1.29123V182.471C272.966 183.184 272.389 183.762 271.675 183.762H263.522C262.808 183.762 262.231 183.184 262.231 182.471V1.29123C262.231 0.577655 262.808 0 263.522 0Z" fill="#5A514E"/>
<path d="M181.785 131.128H145.876V163.306H181.785V131.128Z" fill="#FFA146"/>
<path fill-rule="evenodd" clip-rule="evenodd" d="M168.468 131.128C168.468 133.71 166.395 135.783 163.813 135.783C161.231 135.783 159.159 133.71 159.159 131.128H168.468Z" fill="#ED7425"/>
<path d="M183.619 131.128H181.751V163.306H183.619V131.128Z" fill="#ED7425"/>
<path d="M219.528 131.128H183.619V163.306H219.528V131.128Z" fill="#FFA146"/>
<path fill-rule="evenodd" clip-rule="evenodd" d="M206.211 131.128C206.211 133.71 204.138 135.783 201.557 135.783C198.975 135.783 196.902 133.71 196.902 131.128H206.211Z" fill="#ED7425"/>
<path d="M221.396 131.128H219.528V163.306H221.396V131.128Z" fill="#ED7425"/>
<path d="M257.271 131.128H221.362V163.306H257.271V131.128Z" fill="#FFA146"/>
<path fill-rule="evenodd" clip-rule="evenodd" d="M243.954 131.128C243.954 133.71 241.882 135.783 239.3 135.783C236.718 135.783 234.646 133.71 234.646 131.128H243.954Z" fill="#ED7425"/>
<path d="M51.6375 83.2842H15.729V115.463H51.6375V83.2842Z" fill="#77716F"/>
<path fill-rule="evenodd" clip-rule="evenodd" d="M38.3206 83.2842C38.3206 85.8666 36.2483 87.9394 33.6664 87.9394C31.0845 87.9394 29.0122 85.8666 29.0122 83.2842H38.3206Z" fill="#C3903D"/>
<path d="M53.472 83.2842H51.6035V115.463H53.472V83.2842Z" fill="#85BFE9"/>
<path d="M89.3807 83.2842H53.4722V115.463H89.3807V83.2842Z" fill="#FFA146"/>
<path fill-rule="evenodd" clip-rule="evenodd" d="M76.0637 83.2842C76.0637 85.8666 73.9914 87.9394 71.4096 87.9394C68.8277 87.9394 66.7554 85.8666 66.7554 83.2842H76.0637Z" fill="#ED7425"/>
<path d="M91.2493 83.2842H89.3809V115.463H91.2493V83.2842Z" fill="#ED7425"/>
<path d="M127.124 83.2842H91.2153V115.463H127.124V83.2842Z" fill="#FFA146"/>
<path fill-rule="evenodd" clip-rule="evenodd" d="M113.841 83.2842C113.841 85.8666 111.768 87.9394 109.186 87.9394C106.605 87.9394 104.532 85.8666 104.532 83.2842H113.841Z" fill="#ED7425"/>
<path d="M241.78 83.0464H240.013V115.225H241.78V83.0464Z" fill="#DD3E13"/>
<path d="M259.683 83.0464H241.78V115.225H259.683V83.0464Z" fill="#ED7425"/>
<path d="M222.11 83.0464H220.343V115.225H222.11V83.0464Z" fill="#DD3E13"/>
<path d="M240.013 83.0464H222.11V115.225H240.013V83.0464Z" fill="#ED7425"/>
<path d="M202.44 83.0464H200.673V115.225H202.44V83.0464Z" fill="#DD3E13"/>
<path d="M220.343 83.0464H202.44V115.225H220.343V83.0464Z" fill="#ED7425"/>
<path d="M200.673 101.191H163.134V115.225H200.673V101.191Z" fill="#ED7425"/>
<path d="M163.134 83.0464H161.368V115.225H163.134V83.0464Z" fill="#DD3E13"/>
<path d="M161.368 83.0464H143.464V115.225H161.368V83.0464Z" fill="#ED7425"/>
<path d="M131.064 19.3003H10.7349V29.4942H131.064V19.3003Z" fill="#6A6461"/>
<path d="M131.064 67.3816H10.7349V77.5755H131.064V67.3816Z" fill="#6A6461"/>
<path d="M131.064 115.463H10.7349V125.657H131.064V115.463Z" fill="#6A6461"/>
<path d="M132.083 163.544H10.769V173.738H132.083V163.544Z" fill="#6A6461"/>
<path fill-rule="evenodd" clip-rule="evenodd" d="M8.76465 127.662H20.9267V125.691H10.735V115.497H13.6227V113.526H8.76465V127.696V127.662Z" fill="#5A514E"/>
<path fill-rule="evenodd" clip-rule="evenodd" d="M8.76465 175.743H20.9267V173.772H10.769V163.578H13.6227V161.607H8.76465V175.777V175.743Z" fill="#5A514E"/>
<path fill-rule="evenodd" clip-rule="evenodd" d="M8.76465 79.5804H20.9267V77.6096H10.735V67.4156H13.6227V65.4448H8.76465V79.6144V79.5804Z" fill="#5A514E"/>
<path fill-rule="evenodd" clip-rule="evenodd" d="M8.76465 31.4991H20.9267V29.5283H10.735V19.3343H13.6227V17.3635H8.76465V31.5331V31.4991Z" fill="#5A514E"/>
<path fill-rule="evenodd" clip-rule="evenodd" d="M133.035 127.662H120.873V125.691H131.064V115.497H128.177V113.526H133.035V127.696V127.662Z" fill="#5A514E"/>
<path fill-rule="evenodd" clip-rule="evenodd" d="M133.001 175.743H120.839V173.772H131.031V163.578H128.143V161.607H133.001V175.777V175.743Z" fill="#5A514E"/>
<path fill-rule="evenodd" clip-rule="evenodd" d="M133.035 79.5804H120.873V77.6096H131.064V67.4156H128.177V65.4448H133.035V79.6144V79.5804Z" fill="#5A514E"/>
<path fill-rule="evenodd" clip-rule="evenodd" d="M133.035 31.4991H120.873V29.5283H131.064V19.3343H128.177V17.3635H133.035V31.5331V31.4991Z" fill="#5A514E"/>
<path d="M262.095 19.0967H141.766V29.2906H262.095V19.0967Z" fill="#6A6461"/>
<path d="M262.095 67.1438H141.766V77.3377H262.095V67.1438Z" fill="#6A6461"/>
<path d="M262.095 115.225H141.766V125.419H262.095V115.225Z" fill="#6A6461"/>
<path d="M263.114 163.306H141.8V173.5H263.114V163.306Z" fill="#6A6461"/>
<path fill-rule="evenodd" clip-rule="evenodd" d="M139.795 127.424H151.957V125.453H141.766V115.259H144.653V113.254H139.795V127.424Z" fill="#5A514E"/>
<path fill-rule="evenodd" clip-rule="evenodd" d="M139.795 175.505H151.957V173.534H141.766V163.34H144.653V161.37H139.795V175.539V175.505Z" fill="#5A514E"/>
<path fill-rule="evenodd" clip-rule="evenodd" d="M139.795 79.3426H151.957V77.3718H141.766V67.1779H144.653V65.207H139.795V79.3766V79.3426Z" fill="#5A514E"/>
<path fill-rule="evenodd" clip-rule="evenodd" d="M139.795 31.2613H151.957V29.2565H141.766V19.0626H144.653V17.0918H139.795V31.2613Z" fill="#5A514E"/>
<path fill-rule="evenodd" clip-rule="evenodd" d="M264.065 127.424H251.903V125.453H262.095V115.259H259.207V113.254H264.065V127.424Z" fill="#5A514E"/>
<path fill-rule="evenodd" clip-rule="evenodd" d="M264.032 175.505H251.87V173.534H262.061V163.34H259.174V161.37H264.032V175.539V175.505Z" fill="#5A514E"/>
<path fill-rule="evenodd" clip-rule="evenodd" d="M264.065 79.3426H251.903V77.3718H262.095V67.1779H259.207V65.207H264.065V79.3766V79.3426Z" fill="#5A514E"/>
<path fill-rule="evenodd" clip-rule="evenodd" d="M264.065 31.2613H251.903V29.2565H262.095V19.0626H259.207V17.0918H264.065V31.2613Z" fill="#5A514E"/>
<path d="M124.338 132.453H89.6523V163.544H124.338V132.453Z" fill="#FFA146"/>
<path d="M124.78 132.453H89.2109V137.618H124.78V132.453Z" fill="#FFA146"/>
<path fill-rule="evenodd" clip-rule="evenodd" d="M124.338 163.544H111.293L89.6523 137.652H124.338V163.544Z" fill="#ED7425"/>
<path fill-rule="evenodd" clip-rule="evenodd" d="M121.348 132.453H117.543V139.623L118.359 139.249L119.106 139.589L120.125 138.977L121.348 139.623V132.453Z" fill="#DD3E13"/>
<path fill-rule="evenodd" clip-rule="evenodd" d="M96.447 132.453H92.6421V139.623L93.4574 139.249L94.2048 139.589L95.224 138.977L96.447 139.623V132.453Z" fill="#DD3E13"/>
<path d="M88.1574 132.453H53.5059V163.544H88.1574V132.453Z" fill="#FFA146"/>
<path d="M88.6333 132.453H53.0645V137.618H88.6333V132.453Z" fill="#FFA146"/>
<path fill-rule="evenodd" clip-rule="evenodd" d="M88.1574 163.544H75.1461L53.5059 137.652H88.1574V163.544Z" fill="#ED7425"/>
<path fill-rule="evenodd" clip-rule="evenodd" d="M85.2019 132.453H81.397V139.623L82.2123 139.249L82.9597 139.589L83.9789 138.977L85.2019 139.623V132.453Z" fill="#DD3E13"/>
<path fill-rule="evenodd" clip-rule="evenodd" d="M60.3005 132.453H56.4956V139.623L57.3109 139.249L58.0583 139.589L59.0775 138.977L60.3005 139.623V132.453Z" fill="#DD3E13"/>
<path d="M52.147 132.453H17.4614V163.544H52.147V132.453Z" fill="#FFA146"/>
<path d="M52.5888 132.453H17.02V137.618H52.5888V132.453Z" fill="#FFA146"/>
<path fill-rule="evenodd" clip-rule="evenodd" d="M52.147 163.544H39.1356L17.4614 137.652H52.147V163.544Z" fill="#ED7425"/>
<path fill-rule="evenodd" clip-rule="evenodd" d="M49.1574 132.453H45.3525V139.623L46.1679 139.249L46.9153 139.589L47.9344 138.977L49.1574 139.623V132.453Z" fill="#DD3E13"/>
<path fill-rule="evenodd" clip-rule="evenodd" d="M24.256 132.453H20.4512V139.623L21.2665 139.249L22.0139 139.589L23.0331 138.977L24.256 139.623V132.453Z" fill="#DD3E13"/>
<path d="M200.673 99.3906H163.134V101.158H200.673V99.3906Z" fill="#DD3E13"/>
<path d="M200.673 85.3569H163.134V99.3905H200.673V85.3569Z" fill="#ED7425"/>
<path d="M106.265 36.2903H71.5791V67.3817H106.265V36.2903Z" fill="#FFA146"/>
<path d="M106.707 36.2903H71.1377V41.4552H106.707V36.2903Z" fill="#FFA146"/>
<path fill-rule="evenodd" clip-rule="evenodd" d="M106.265 67.3818H93.2193L71.5791 41.4893H106.265V67.3818Z" fill="#ED7425"/>
<path fill-rule="evenodd" clip-rule="evenodd" d="M103.275 36.2903H99.4702V43.46L100.286 43.0862L101.033 43.426L102.052 42.8144L103.275 43.46V36.2903Z" fill="#DD3E13"/>
<path fill-rule="evenodd" clip-rule="evenodd" d="M78.3737 36.2903H74.5688V43.46L75.3842 43.0862L76.1316 43.426L77.1507 42.8144L78.3737 43.46V36.2903Z" fill="#DD3E13"/>
<path d="M70.2202 36.2903H35.5347V67.3817H70.2202V36.2903Z" fill="#FFA146"/>
<path d="M70.6621 36.2903H35.0933V41.4552H70.6621V36.2903Z" fill="#FFA146"/>
<path fill-rule="evenodd" clip-rule="evenodd" d="M70.2202 67.3818H57.2089L35.5347 41.4893H70.2202V67.3818Z" fill="#ED7425"/>
<path fill-rule="evenodd" clip-rule="evenodd" d="M67.2307 36.2903H63.4258V43.46L64.2411 43.0862L64.9885 43.426L66.0077 42.8144L67.2307 43.46V36.2903Z" fill="#DD3E13"/>
<path fill-rule="evenodd" clip-rule="evenodd" d="M42.3293 36.2903H38.5244V43.46L39.3397 43.0862L40.0871 43.426L41.1063 42.8144L42.3293 43.46V36.2903Z" fill="#DD3E13"/>
<path d="M247.181 43.2222H220.479V67.1439H247.181V43.2222Z" fill="#FFA146"/>
<path d="M247.487 43.2222H220.105V47.1978H247.487V43.2222Z" fill="#FFA146"/>
<path fill-rule="evenodd" clip-rule="evenodd" d="M247.147 67.1438H237.125L220.479 47.1978H247.147V67.1438Z" fill="#ED7425"/>
<path fill-rule="evenodd" clip-rule="evenodd" d="M244.871 43.2222H241.916V48.7269L242.561 48.4211L243.139 48.6929L243.92 48.2512L244.871 48.7269V43.2222Z" fill="#DD3E13"/>
<path fill-rule="evenodd" clip-rule="evenodd" d="M225.677 43.2222H222.755V48.7269L223.401 48.4211L223.978 48.6929L224.76 48.2512L225.677 48.7269V43.2222Z" fill="#DD3E13"/>
<path d="M219.426 43.2222H192.724V67.1439H219.426V43.2222Z" fill="#FFA146"/>
<path d="M219.766 43.2222H192.384V47.1978H219.766V43.2222Z" fill="#FFA146"/>
<path fill-rule="evenodd" clip-rule="evenodd" d="M219.426 67.1438H209.404L192.724 47.1978H219.426V67.1438Z" fill="#ED7425"/>
<path fill-rule="evenodd" clip-rule="evenodd" d="M217.116 43.2222H214.194V48.7269L214.806 48.4211L215.383 48.6929L216.199 48.2512L217.116 48.7269V43.2222Z" fill="#DD3E13"/>
<path fill-rule="evenodd" clip-rule="evenodd" d="M197.956 43.2222H195V48.7269L195.645 48.4211L196.223 48.6929L197.004 48.2512L197.956 48.7269V43.2222Z" fill="#DD3E13"/>
<path d="M191.501 36.0525H156.815V67.1439H191.501V36.0525Z" fill="#FFA146"/>
<path d="M191.909 36.0525H156.34V41.2174H191.909V36.0525Z" fill="#FFA146"/>
<path fill-rule="evenodd" clip-rule="evenodd" d="M191.467 67.144H178.456L156.815 41.2515H191.467V67.144Z" fill="#ED7425"/>
<path fill-rule="evenodd" clip-rule="evenodd" d="M188.477 36.0525H184.672V43.2222L185.488 42.8484L186.235 43.1882L187.288 42.5766L188.477 43.2222V36.0525Z" fill="#DD3E13"/>
<path fill-rule="evenodd" clip-rule="evenodd" d="M163.576 36.0525H159.771V43.2222L160.586 42.8484L161.334 43.1882L162.387 42.5766L163.576 43.2222V36.0525Z" fill="#DD3E13"/>
</g>
<defs>
<clipPath id="clip0_85_2339">
<rect width="273" height="184" fill="white"/>
</clipPath>
</defs>
</svg>
