<svg width="81" height="39" viewBox="0 0 81 39" fill="none" xmlns="http://www.w3.org/2000/svg">
<g clip-path="url(#clip0_85_1892)">
<path d="M3.17001 29.02H77.28C78.06 29.02 78.69 29.65 78.69 30.43V36.06C78.69 36.84 78.06 37.47 77.28 37.47H3.17001C2.39001 37.47 1.76001 36.84 1.76001 36.06V30.43C1.76001 29.65 2.39001 29.02 3.17001 29.02Z" fill="#77716F"/>
<path fill-rule="evenodd" clip-rule="evenodd" d="M5.06 28.17H75.3C78.08 28.17 80.36 30.45 80.36 33.23C80.36 36.01 78.08 38.29 75.3 38.29H5.06C2.28 38.29 0 36.01 0 33.23C0 30.45 2.28 28.17 5.06 28.17ZM5.06 29.93C3.25 29.93 1.76 31.41 1.76 33.23C1.76 35.04 3.24 36.53 5.06 36.53H75.3C77.11 36.53 78.6 35.05 78.6 33.23C78.6 31.42 77.12 29.93 75.3 29.93H5.06Z" fill="#5A514E"/>
<path d="M27.66 8.04H5.19995V28.18H27.66V8.04Z" fill="#FFA146"/>
<path d="M28.9499 8.04H27.6599V28.18H28.9499V8.04Z" fill="#DD3E13"/>
<path d="M51.41 0H28.95V28.21H51.41V0Z" fill="#FFA146"/>
<path d="M52.6999 8.04H51.4099V28.18H52.6999V8.04Z" fill="#DD3E13"/>
<path d="M75.16 8.04H52.7V28.18H75.16V8.04Z" fill="#FFA146"/>
<path d="M34.4399 4.9H33.95V8.39H34.4399V4.9Z" fill="#435D76"/>
<path fill-rule="evenodd" clip-rule="evenodd" d="M36.11 2.24V4.51C36.11 5.56 35.25 6.43 34.19 6.43C33.13 6.43 32.27 5.57 32.27 4.51V2.24H36.11Z" fill="#435D76"/>
<path fill-rule="evenodd" clip-rule="evenodd" d="M33.1 8.39999H35.2901C35.5901 8.39999 35.8301 8.56999 35.8301 8.77999H32.55C32.55 8.56999 32.79 8.39999 33.09 8.39999H33.1Z" fill="#435D76"/>
<path fill-rule="evenodd" clip-rule="evenodd" d="M9.29999 12.97V16.31H8.07999V12.97H7.23999L7.95999 11.64L8.68999 10.31L9.40999 11.64L10.14 12.97H9.29999Z" fill="#435D76"/>
<path fill-rule="evenodd" clip-rule="evenodd" d="M12.58 12.97V16.31H11.37V12.97H10.52L11.25 11.64L11.98 10.31L12.7 11.64L13.43 12.97H12.58Z" fill="#435D76"/>
<path fill-rule="evenodd" clip-rule="evenodd" d="M7.59009 16.31H13.0701V16.78H7.59009V16.31Z" fill="#435D76"/>
<path fill-rule="evenodd" clip-rule="evenodd" d="M60.1799 12.34C59.8899 11.16 58.8099 10.27 57.5399 10.27C56.2699 10.27 55.1999 11.15 54.8999 12.34H60.1699H60.1799Z" fill="#435D76"/>
<path fill-rule="evenodd" clip-rule="evenodd" d="M57.8 15.82C57.78 16.37 57.32 16.81 56.77 16.81C56.22 16.81 55.76 16.37 55.74 15.82H56.25C56.27 16.09 56.5 16.31 56.78 16.31C57.06 16.31 57.28 16.1 57.31 15.82V12.15H57.82V15.82H57.8Z" fill="#435D76"/>
<path fill-rule="evenodd" clip-rule="evenodd" d="M8.69992 29.94C8.42992 29.94 8.21992 30.16 8.21992 30.42H6.89992C6.89992 30.16 6.67992 29.94 6.41992 29.94H8.70992H8.69992Z" fill="#1A2A3A"/>
<path fill-rule="evenodd" clip-rule="evenodd" d="M10.9499 29.94C10.6799 29.94 10.4699 30.16 10.4699 30.42H9.14992C9.14992 30.16 8.92992 29.94 8.66992 29.94H10.9599H10.9499Z" fill="#1A2A3A"/>
<path fill-rule="evenodd" clip-rule="evenodd" d="M13.1999 29.94C12.9299 29.94 12.7199 30.16 12.7199 30.42H11.3999C11.3999 30.16 11.1799 29.94 10.9199 29.94H13.2099H13.1999Z" fill="#1A2A3A"/>
<path fill-rule="evenodd" clip-rule="evenodd" d="M15.4499 29.94C15.1899 29.94 14.9699 30.16 14.9699 30.42H13.6499C13.6499 30.16 13.4299 29.94 13.1699 29.94H15.4599H15.4499Z" fill="#1A2A3A"/>
<path fill-rule="evenodd" clip-rule="evenodd" d="M17.6999 29.94C17.4299 29.94 17.2199 30.16 17.2199 30.42H15.8999C15.8999 30.16 15.6799 29.94 15.4199 29.94H17.7099H17.6999Z" fill="#1A2A3A"/>
<path fill-rule="evenodd" clip-rule="evenodd" d="M19.9499 29.94C19.6799 29.94 19.4699 30.16 19.4699 30.42H18.1499C18.1499 30.16 17.9299 29.94 17.6699 29.94H19.9599H19.9499Z" fill="#1A2A3A"/>
<path fill-rule="evenodd" clip-rule="evenodd" d="M22.1999 29.94C21.9399 29.94 21.7199 30.16 21.7199 30.42H20.3999C20.3999 30.16 20.1799 29.94 19.9199 29.94H22.2099H22.1999Z" fill="#1A2A3A"/>
<path fill-rule="evenodd" clip-rule="evenodd" d="M24.4499 29.94C24.1899 29.94 23.9699 30.16 23.9699 30.42H22.6499C22.6499 30.16 22.4299 29.94 22.1699 29.94H24.4599H24.4499Z" fill="#1A2A3A"/>
<path fill-rule="evenodd" clip-rule="evenodd" d="M26.6999 29.94C26.4299 29.94 26.2199 30.16 26.2199 30.42H24.8999C24.8999 30.16 24.6799 29.94 24.4199 29.94H26.7099H26.6999Z" fill="#1A2A3A"/>
<path fill-rule="evenodd" clip-rule="evenodd" d="M28.9499 29.94C28.6799 29.94 28.4699 30.16 28.4699 30.42H27.1499C27.1499 30.16 26.9299 29.94 26.6699 29.94H28.9599H28.9499Z" fill="#1A2A3A"/>
<path fill-rule="evenodd" clip-rule="evenodd" d="M31.1999 29.94C30.9299 29.94 30.7199 30.16 30.7199 30.42H29.3999C29.3999 30.16 29.1799 29.94 28.9199 29.94H31.2099H31.1999Z" fill="#1A2A3A"/>
<path fill-rule="evenodd" clip-rule="evenodd" d="M33.4499 29.94C33.1799 29.94 32.9699 30.16 32.9699 30.42H31.6499C31.6499 30.16 31.4299 29.94 31.1699 29.94H33.4599H33.4499Z" fill="#1A2A3A"/>
<path fill-rule="evenodd" clip-rule="evenodd" d="M35.6999 29.94C35.4299 29.94 35.2199 30.16 35.2199 30.42H33.8999C33.8999 30.16 33.6799 29.94 33.4199 29.94H35.7099H35.6999Z" fill="#1A2A3A"/>
<path fill-rule="evenodd" clip-rule="evenodd" d="M37.9499 29.94C37.6799 29.94 37.4699 30.16 37.4699 30.42H36.1499C36.1499 30.16 35.9299 29.94 35.6699 29.94H37.9599H37.9499Z" fill="#1A2A3A"/>
<path fill-rule="evenodd" clip-rule="evenodd" d="M40.1999 29.94C39.9299 29.94 39.7199 30.16 39.7199 30.42H38.3999C38.3999 30.16 38.1799 29.94 37.9199 29.94H40.2099H40.1999Z" fill="#1A2A3A"/>
<path fill-rule="evenodd" clip-rule="evenodd" d="M42.4499 29.94C42.1899 29.94 41.9699 30.16 41.9699 30.42H40.6499C40.6499 30.16 40.4299 29.94 40.1699 29.94H42.4599H42.4499Z" fill="#1A2A3A"/>
<path fill-rule="evenodd" clip-rule="evenodd" d="M44.6999 29.94C44.4399 29.94 44.2199 30.16 44.2199 30.42H42.8999C42.8999 30.16 42.6799 29.94 42.4199 29.94H44.7099H44.6999Z" fill="#1A2A3A"/>
<path fill-rule="evenodd" clip-rule="evenodd" d="M46.9499 29.94C46.6899 29.94 46.4699 30.16 46.4699 30.42H45.1499C45.1499 30.16 44.9299 29.94 44.6699 29.94H46.9599H46.9499Z" fill="#1A2A3A"/>
<path fill-rule="evenodd" clip-rule="evenodd" d="M49.1999 29.94C48.9299 29.94 48.7199 30.16 48.7199 30.42H47.3999C47.3999 30.16 47.1799 29.94 46.9199 29.94H49.2099H49.1999Z" fill="#1A2A3A"/>
<path fill-rule="evenodd" clip-rule="evenodd" d="M51.4499 29.94C51.1799 29.94 50.9699 30.16 50.9699 30.42H49.6499C49.6499 30.16 49.4299 29.94 49.1699 29.94H51.4599H51.4499Z" fill="#1A2A3A"/>
<path fill-rule="evenodd" clip-rule="evenodd" d="M53.6999 29.94C53.4299 29.94 53.2199 30.16 53.2199 30.42H51.8999C51.8999 30.16 51.6799 29.94 51.4199 29.94H53.7099H53.6999Z" fill="#1A2A3A"/>
<path fill-rule="evenodd" clip-rule="evenodd" d="M55.9499 29.94C55.6799 29.94 55.4699 30.16 55.4699 30.42H54.1499C54.1499 30.16 53.9299 29.94 53.6699 29.94H55.9599H55.9499Z" fill="#1A2A3A"/>
<path fill-rule="evenodd" clip-rule="evenodd" d="M58.1999 29.94C57.9299 29.94 57.7199 30.16 57.7199 30.42H56.3999C56.3999 30.16 56.1799 29.94 55.9199 29.94H58.2099H58.1999Z" fill="#1A2A3A"/>
<path fill-rule="evenodd" clip-rule="evenodd" d="M60.4499 29.94C60.1799 29.94 59.9699 30.16 59.9699 30.42H58.6499C58.6499 30.16 58.4299 29.94 58.1699 29.94H60.4599H60.4499Z" fill="#1A2A3A"/>
<path fill-rule="evenodd" clip-rule="evenodd" d="M62.6999 29.94C62.4299 29.94 62.2199 30.16 62.2199 30.42H60.8999C60.8999 30.16 60.6799 29.94 60.4199 29.94H62.7099H62.6999Z" fill="#1A2A3A"/>
<path fill-rule="evenodd" clip-rule="evenodd" d="M64.9499 29.94C64.6799 29.94 64.4699 30.16 64.4699 30.42H63.1499C63.1499 30.16 62.9299 29.94 62.6699 29.94H64.9599H64.9499Z" fill="#1A2A3A"/>
<path fill-rule="evenodd" clip-rule="evenodd" d="M67.1999 29.94C66.9299 29.94 66.7199 30.16 66.7199 30.42H65.3999C65.3999 30.16 65.1799 29.94 64.9199 29.94H67.2099H67.1999Z" fill="#1A2A3A"/>
<path fill-rule="evenodd" clip-rule="evenodd" d="M69.4499 29.94C69.1799 29.94 68.9699 30.16 68.9699 30.42H67.6499C67.6499 30.16 67.4299 29.94 67.1699 29.94H69.4599H69.4499Z" fill="#1A2A3A"/>
<path fill-rule="evenodd" clip-rule="evenodd" d="M71.6999 29.94C71.4299 29.94 71.2199 30.16 71.2199 30.42H69.8999C69.8999 30.16 69.6799 29.94 69.4199 29.94H71.7099H71.6999Z" fill="#1A2A3A"/>
<path fill-rule="evenodd" clip-rule="evenodd" d="M73.9399 29.94C73.6799 29.94 73.4599 30.16 73.4599 30.42H72.1399C72.1399 30.16 71.9199 29.94 71.6599 29.94H73.9499H73.9399Z" fill="#1A2A3A"/>
<path fill-rule="evenodd" clip-rule="evenodd" d="M6.8899 36.05H8.2099C8.2099 36.32 8.4299 36.53 8.6899 36.53H6.3999C6.6699 36.53 6.8799 36.31 6.8799 36.05H6.8899Z" fill="#1A2A3A"/>
<path fill-rule="evenodd" clip-rule="evenodd" d="M9.1399 36.05H10.4599C10.4599 36.32 10.6799 36.53 10.9399 36.53H8.6499C8.9199 36.53 9.1299 36.31 9.1299 36.05H9.1399Z" fill="#1A2A3A"/>
<path fill-rule="evenodd" clip-rule="evenodd" d="M11.3899 36.05H12.7099C12.7099 36.32 12.9299 36.53 13.1899 36.53H10.8999C11.1599 36.53 11.3799 36.31 11.3799 36.05H11.3899Z" fill="#1A2A3A"/>
<path fill-rule="evenodd" clip-rule="evenodd" d="M13.6399 36.05H14.9599C14.9599 36.32 15.1799 36.53 15.4399 36.53H13.1499C13.4099 36.53 13.6299 36.31 13.6299 36.05H13.6399Z" fill="#1A2A3A"/>
<path fill-rule="evenodd" clip-rule="evenodd" d="M15.8899 36.05H17.2099C17.2099 36.32 17.4299 36.53 17.6899 36.53H15.3999C15.6599 36.53 15.8799 36.31 15.8799 36.05H15.8899Z" fill="#1A2A3A"/>
<path fill-rule="evenodd" clip-rule="evenodd" d="M18.1399 36.05H19.4599C19.4599 36.32 19.6799 36.53 19.9399 36.53H17.6499C17.9199 36.53 18.1299 36.31 18.1299 36.05H18.1399Z" fill="#1A2A3A"/>
<path fill-rule="evenodd" clip-rule="evenodd" d="M20.3899 36.05H21.7099C21.7099 36.32 21.9299 36.53 22.1899 36.53H19.8999C20.1699 36.53 20.3799 36.31 20.3799 36.05H20.3899Z" fill="#1A2A3A"/>
<path fill-rule="evenodd" clip-rule="evenodd" d="M22.6399 36.05H23.9599C23.9599 36.32 24.1799 36.53 24.4399 36.53H22.1499C22.4199 36.53 22.6299 36.31 22.6299 36.05H22.6399Z" fill="#1A2A3A"/>
<path fill-rule="evenodd" clip-rule="evenodd" d="M24.8899 36.05H26.2099C26.2099 36.32 26.4299 36.53 26.6899 36.53H24.3999C24.6699 36.53 24.8799 36.31 24.8799 36.05H24.8899Z" fill="#1A2A3A"/>
<path fill-rule="evenodd" clip-rule="evenodd" d="M27.1399 36.05H28.4599C28.4599 36.32 28.6799 36.53 28.9399 36.53H26.6499C26.9199 36.53 27.1299 36.31 27.1299 36.05H27.1399Z" fill="#1A2A3A"/>
<path fill-rule="evenodd" clip-rule="evenodd" d="M29.3899 36.05H30.7099C30.7099 36.32 30.9299 36.53 31.1899 36.53H28.8999C29.1699 36.53 29.3799 36.31 29.3799 36.05H29.3899Z" fill="#1A2A3A"/>
<path fill-rule="evenodd" clip-rule="evenodd" d="M31.6399 36.05H32.9599C32.9599 36.32 33.1799 36.53 33.4399 36.53H31.1499C31.4099 36.53 31.6299 36.31 31.6299 36.05H31.6399Z" fill="#1A2A3A"/>
<path fill-rule="evenodd" clip-rule="evenodd" d="M33.8899 36.05H35.2099C35.2099 36.32 35.4299 36.53 35.6899 36.53H33.3999C33.6599 36.53 33.8799 36.31 33.8799 36.05H33.8899Z" fill="#1A2A3A"/>
<path fill-rule="evenodd" clip-rule="evenodd" d="M36.1399 36.05H37.4599C37.4599 36.32 37.6799 36.53 37.9399 36.53H35.6499C35.9099 36.53 36.1299 36.31 36.1299 36.05H36.1399Z" fill="#1A2A3A"/>
<path fill-rule="evenodd" clip-rule="evenodd" d="M38.3899 36.05H39.7099C39.7099 36.32 39.9299 36.53 40.1899 36.53H37.8999C38.1699 36.53 38.3799 36.31 38.3799 36.05H38.3899Z" fill="#1A2A3A"/>
<path fill-rule="evenodd" clip-rule="evenodd" d="M40.6399 36.05H41.9599C41.9599 36.32 42.1799 36.53 42.4399 36.53H40.1499C40.4199 36.53 40.6299 36.31 40.6299 36.05H40.6399Z" fill="#1A2A3A"/>
<path fill-rule="evenodd" clip-rule="evenodd" d="M42.8899 36.05H44.2099C44.2099 36.32 44.4299 36.53 44.6899 36.53H42.3999C42.6699 36.53 42.8799 36.31 42.8799 36.05H42.8899Z" fill="#1A2A3A"/>
<path fill-rule="evenodd" clip-rule="evenodd" d="M45.1399 36.05H46.4599C46.4599 36.32 46.6799 36.53 46.9399 36.53H44.6499C44.9199 36.53 45.1299 36.31 45.1299 36.05H45.1399Z" fill="#1A2A3A"/>
<path fill-rule="evenodd" clip-rule="evenodd" d="M47.3899 36.05H48.7099C48.7099 36.32 48.9299 36.53 49.1899 36.53H46.8999C47.1699 36.53 47.3799 36.31 47.3799 36.05H47.3899Z" fill="#1A2A3A"/>
<path fill-rule="evenodd" clip-rule="evenodd" d="M49.6399 36.05H50.9599C50.9599 36.32 51.1799 36.53 51.4399 36.53H49.1499C49.4199 36.53 49.6299 36.31 49.6299 36.05H49.6399Z" fill="#1A2A3A"/>
<path fill-rule="evenodd" clip-rule="evenodd" d="M51.8899 36.05H53.2099C53.2099 36.32 53.4299 36.53 53.6899 36.53H51.3999C51.6699 36.53 51.8799 36.31 51.8799 36.05H51.8899Z" fill="#1A2A3A"/>
<path fill-rule="evenodd" clip-rule="evenodd" d="M54.1399 36.05H55.4599C55.4599 36.32 55.6799 36.53 55.9399 36.53H53.6499C53.9199 36.53 54.1299 36.31 54.1299 36.05H54.1399Z" fill="#1A2A3A"/>
<path fill-rule="evenodd" clip-rule="evenodd" d="M56.3899 36.05H57.7099C57.7099 36.32 57.9299 36.53 58.1899 36.53H55.8999C56.1599 36.53 56.3799 36.31 56.3799 36.05H56.3899Z" fill="#1A2A3A"/>
<path fill-rule="evenodd" clip-rule="evenodd" d="M58.6399 36.05H59.9599C59.9599 36.32 60.1799 36.53 60.4399 36.53H58.1499C58.4199 36.53 58.6299 36.31 58.6299 36.05H58.6399Z" fill="#1A2A3A"/>
<path fill-rule="evenodd" clip-rule="evenodd" d="M60.8899 36.05H62.2099C62.2099 36.32 62.4299 36.53 62.6899 36.53H60.3999C60.6699 36.53 60.8799 36.31 60.8799 36.05H60.8899Z" fill="#1A2A3A"/>
<path fill-rule="evenodd" clip-rule="evenodd" d="M63.1399 36.05H64.4599C64.4599 36.32 64.6799 36.53 64.9399 36.53H62.6499C62.9199 36.53 63.1299 36.31 63.1299 36.05H63.1399Z" fill="#1A2A3A"/>
<path fill-rule="evenodd" clip-rule="evenodd" d="M65.3899 36.05H66.7099C66.7099 36.32 66.9299 36.53 67.1899 36.53H64.8999C65.1599 36.53 65.3799 36.31 65.3799 36.05H65.3899Z" fill="#1A2A3A"/>
<path fill-rule="evenodd" clip-rule="evenodd" d="M67.6399 36.05H68.9599C68.9599 36.32 69.1799 36.53 69.4399 36.53H67.1499C67.4099 36.53 67.6299 36.31 67.6299 36.05H67.6399Z" fill="#1A2A3A"/>
<path fill-rule="evenodd" clip-rule="evenodd" d="M69.8899 36.05H71.2099C71.2099 36.32 71.4299 36.53 71.6899 36.53H69.3999C69.6699 36.53 69.8799 36.31 69.8799 36.05H69.8899Z" fill="#1A2A3A"/>
<path fill-rule="evenodd" clip-rule="evenodd" d="M72.1399 36.05H73.4599C73.4599 36.32 73.6799 36.53 73.9399 36.53H71.6499C71.9199 36.53 72.1299 36.31 72.1299 36.05H72.1399Z" fill="#1A2A3A"/>
<path fill-rule="evenodd" clip-rule="evenodd" d="M7.43993 30.85C8.75993 32.17 8.75993 34.3 7.43993 35.62C6.11993 36.94 3.98993 36.94 2.66993 35.62C1.34993 34.3 1.34993 32.16 2.66993 30.85C3.98993 29.53 6.12993 29.53 7.43993 30.85Z" fill="#5A514E"/>
<path fill-rule="evenodd" clip-rule="evenodd" d="M3.93992 34.34C3.32992 33.73 3.32992 32.74 3.93992 32.13C4.54992 31.52 5.53992 31.52 6.14992 32.13L3.93992 34.34Z" fill="#344453"/>
<path fill-rule="evenodd" clip-rule="evenodd" d="M7.43992 30.85C8.75992 32.17 8.75992 34.3 7.43992 35.62C6.11992 36.94 3.98992 36.94 2.66992 35.62L7.43992 30.85Z" fill="#77716F"/>
<path fill-rule="evenodd" clip-rule="evenodd" d="M6.15995 32.13C6.76995 32.74 6.76995 33.73 6.15995 34.34C5.54995 34.95 4.55995 34.95 3.94995 34.34L6.15995 32.13Z" fill="#1A2A3A"/>
<path fill-rule="evenodd" clip-rule="evenodd" d="M77.6799 30.85C78.9999 32.17 78.9999 34.3 77.6799 35.62C76.3599 36.94 74.2199 36.94 72.9099 35.62C71.5899 34.3 71.5899 32.16 72.9099 30.85C74.2299 29.53 76.3699 29.53 77.6799 30.85Z" fill="#5A514E"/>
<path fill-rule="evenodd" clip-rule="evenodd" d="M74.1899 34.34C73.5799 33.73 73.5799 32.74 74.1899 32.13C74.7999 31.52 75.7899 31.52 76.3999 32.13L74.1899 34.34Z" fill="#20354A"/>
<path fill-rule="evenodd" clip-rule="evenodd" d="M77.6799 30.85C78.9999 32.17 78.9999 34.3 77.6799 35.62C76.3599 36.94 74.2199 36.94 72.9099 35.62L77.6799 30.85Z" fill="#77716F"/>
<path fill-rule="evenodd" clip-rule="evenodd" d="M76.3999 32.13C77.0099 32.74 77.0099 33.73 76.3999 34.34C75.7899 34.95 74.7999 34.95 74.1899 34.34L76.3999 32.13Z" fill="#1A2A3A"/>
<path d="M27.6599 8.04H16.4299V28.18H27.6599V8.04Z" fill="#ED7425"/>
<path d="M51.4099 0H40.1799V28.21H51.4099V0Z" fill="#ED7425"/>
<path d="M75.1599 8.04H63.9299V28.18H75.1599V8.04Z" fill="#ED7425"/>
</g>
<defs>
<clipPath id="clip0_85_1892">
<rect width="80.36" height="38.29" fill="white"/>
</clipPath>
</defs>
</svg>
