<svg width="362" height="316" viewBox="0 0 362 316" fill="none" xmlns="http://www.w3.org/2000/svg">
<g style="mix-blend-mode:color-burn" opacity="0.65">
<path d="M18.7749 62.5753H125.097V32.3567H18.7749V62.5753ZM76.1184 58.298H70.2632C70.2632 58.298 69.5197 57.8331 69.6126 57.4612L70.0773 55.8807C70.0773 55.8807 70.449 55.4156 70.7279 55.4156H75.5607C75.5607 55.4156 76.1184 55.6017 76.2113 55.8807L76.7689 57.4612C76.7689 57.4612 76.583 58.298 76.1184 58.298ZM70.7279 48.5352L70.2632 47.6984C70.2632 47.6984 70.2632 47.4193 70.2632 47.2333L70.7279 46.3965C70.7279 46.3965 71.0067 46.1176 71.1926 46.1176H75.189C75.189 46.1176 75.5607 46.2106 75.6536 46.3965L76.1184 47.2333C76.1184 47.2333 76.1184 47.5124 76.1184 47.6984L75.6536 48.5352C75.6536 48.5352 75.3749 48.8141 75.189 48.8141H71.1926C71.1926 48.8141 70.8208 48.7211 70.7279 48.5352ZM89.1299 58.298H83.2746C83.2746 58.298 82.5311 57.8331 82.717 57.4612L83.2746 55.8807C83.2746 55.8807 83.6465 55.4156 83.9253 55.4156H88.7581C88.7581 55.4156 89.3157 55.6017 89.4087 55.8807L89.8734 57.4612C89.8734 57.4612 89.6875 58.298 89.2228 58.298H89.1299ZM91.5463 54.9508C91.5463 55.4157 91.0816 55.7877 90.7098 55.6018L89.1299 55.0436C89.1299 55.0436 88.6651 54.6719 88.6651 54.393V49.1861C88.6651 49.1861 88.851 48.6281 89.1299 48.5352L90.7098 47.9773C90.7098 47.9773 91.5463 48.1633 91.5463 48.6282V54.8578V54.9508ZM104.744 58.298H98.8884C98.8884 58.298 98.1449 57.8331 98.3308 57.4612L98.8884 55.8807C98.8884 55.8807 99.2602 55.4156 99.539 55.4156H104.372C104.372 55.4156 104.929 55.6017 105.022 55.8807L105.487 57.4612C105.487 57.4612 105.301 58.298 104.837 58.298H104.744ZM107.16 54.9508C107.16 55.4157 106.695 55.7877 106.324 55.6018L104.744 55.0436C104.744 55.0436 104.279 54.6719 104.279 54.393V49.1861C104.279 49.1861 104.465 48.6281 104.744 48.5352L106.324 47.9773C106.324 47.9773 107.16 48.1633 107.16 48.6282V54.8578V54.9508ZM117.755 58.298H111.9C111.9 58.298 111.156 57.8331 111.342 57.4612L111.9 55.8807C111.9 55.8807 112.272 55.4156 112.55 55.4156H117.383C117.383 55.4156 117.941 55.6017 118.034 55.8807L118.499 57.4612C118.499 57.4612 118.313 58.298 117.848 58.298H117.755ZM120.171 54.9508C120.171 55.4157 119.707 55.7877 119.335 55.6018L117.755 55.0436C117.755 55.0436 117.29 54.6719 117.29 54.393V49.1861C117.29 49.1861 117.476 48.6281 117.755 48.5352L119.335 47.9773C119.335 47.9773 120.171 48.1633 120.171 48.6282V54.8578V54.9508ZM120.171 39.6091V45.9317C120.171 46.3966 119.707 46.7686 119.335 46.5827L117.755 46.0248C117.755 46.0248 117.29 45.6528 117.29 45.3739V40.167C117.29 40.167 117.476 39.609 117.755 39.5161L119.335 38.9582C119.335 38.9582 120.171 39.1442 120.171 39.6091ZM111.9 36.5406H117.755C117.755 36.5406 118.499 37.0055 118.313 37.3774L117.755 38.9582C117.755 38.9582 117.383 39.423 117.105 39.423H112.272C112.272 39.423 111.714 39.2372 111.621 38.9582L111.156 37.3774C111.156 37.3774 111.342 36.5406 111.807 36.5406H111.9ZM109.391 39.5161C109.391 39.0512 109.855 38.6792 110.227 38.8651L111.714 39.423C111.714 39.423 112.179 39.795 112.179 40.0739V45.2808C112.179 45.2808 111.993 45.8388 111.714 45.9317L110.134 46.4896C110.134 46.4896 109.298 46.3036 109.298 45.8387V39.5161H109.391ZM109.391 48.5352C109.391 48.0703 109.855 47.6983 110.227 47.8842L111.807 48.4421C111.807 48.4421 112.272 48.8141 112.272 49.093V54.2999C112.272 54.2999 112.086 54.8578 111.807 54.9508L110.227 55.5087C110.227 55.5087 109.391 55.3227 109.391 54.8578V48.6282V48.5352ZM107.16 39.5161V45.8387C107.16 46.3036 106.695 46.6756 106.324 46.4896L104.744 45.9317C104.744 45.9317 104.279 45.5597 104.279 45.2808V40.0739C104.279 40.0739 104.465 39.516 104.744 39.423L106.324 38.8651C106.324 38.8651 107.16 39.0512 107.16 39.5161ZM98.8884 36.4476H104.744C104.744 36.4476 105.487 36.9127 105.301 37.2846L104.744 38.8651C104.744 38.8651 104.372 39.3302 104.093 39.3302H99.2602C99.2602 39.3302 98.7026 39.1441 98.6096 38.8651L98.145 37.2846C98.145 37.2846 98.3308 36.4476 98.7955 36.4476H98.8884ZM96.3791 39.423C96.3791 38.9581 96.8438 38.5861 97.2155 38.7721L98.7026 39.3302C98.7026 39.3302 99.1673 39.7019 99.1673 39.9809V45.1877C99.1673 45.1877 98.9814 45.7457 98.7026 45.8387L97.1226 46.3965C97.1226 46.3965 96.2861 46.2105 96.2861 45.7456V39.423H96.3791ZM96.3791 48.4421C96.3791 47.9772 96.8438 47.6052 97.2155 47.7912L98.7955 48.3493C98.7955 48.3493 99.2602 48.721 99.2602 49V54.2068C99.2602 54.2068 99.0743 54.7648 98.7955 54.8578L97.2155 55.4156C97.2155 55.4156 96.3791 55.2296 96.3791 54.7647V48.5352V48.4421ZM92.6615 55.6945C92.6615 55.6945 93.0333 55.2298 93.3121 55.2298H94.3344C94.3344 55.2298 94.8921 55.4156 94.985 55.6945L95.4497 57.2753C95.4497 57.2753 95.2638 58.1121 94.7991 58.1121H92.7545C92.7545 58.1121 92.011 57.6473 92.1969 57.2753L92.7545 55.6945H92.6615ZM91.6392 39.423V45.7456C91.6392 46.2105 91.1745 46.5825 90.8028 46.3965L89.2228 45.8387C89.2228 45.8387 88.7581 45.4667 88.7581 45.1877V39.9809C88.7581 39.9809 88.944 39.4232 89.2228 39.3302L90.8028 38.7721C90.8028 38.7721 91.6392 38.9581 91.6392 39.423ZM83.3676 36.3548H89.2228C89.2228 36.3548 89.9663 36.8196 89.7804 37.1916L89.2228 38.7721C89.2228 38.7721 88.8511 39.2371 88.5722 39.2371H83.7394C83.7394 39.2371 83.1817 39.051 83.0888 38.7721L82.6241 37.1916C82.6241 37.1916 82.8099 36.3548 83.2746 36.3548H83.3676ZM80.8583 39.3302C80.8583 38.8653 81.3229 38.4933 81.6947 38.6793L83.1817 39.2371C83.1817 39.2371 83.6464 39.6091 83.6464 39.8881V45.0949C83.6464 45.0949 83.4606 45.6526 83.1817 45.7456L81.6018 46.3037C81.6018 46.3037 80.7653 46.1177 80.7653 45.6528V39.3302H80.8583ZM80.8583 48.3493C80.8583 47.8844 81.3229 47.5124 81.6947 47.6984L83.2746 48.2562C83.2746 48.2562 83.7394 48.6282 83.7394 48.9072V54.114C83.7394 54.114 83.5535 54.6717 83.2746 54.7647L81.6947 55.3228C81.6947 55.3228 80.8583 55.1368 80.8583 54.6719V48.4421V48.3493ZM78.6277 39.3302V45.1877C78.6277 45.1877 78.256 45.9316 77.7913 45.8387L76.2113 45.3739C76.2113 45.3739 75.7466 45.0019 75.7466 44.7229V39.8881C75.7466 39.8881 75.9325 39.3301 76.2113 39.2371L77.6983 38.6793C77.6983 38.6793 78.5348 38.8652 78.5348 39.2371L78.6277 39.3302ZM70.4491 36.3548H76.3042C76.3042 36.3548 77.0478 36.8196 76.9548 37.1916L76.3972 38.7721C76.3972 38.7721 76.0254 39.2371 75.7466 39.2371H70.9138C70.9138 39.2371 70.3561 39.051 70.2632 38.7721L69.7985 37.1916C69.7985 37.1916 69.9844 36.3548 70.4491 36.3548ZM67.9397 48.8141C67.9397 48.8141 68.4044 48.0703 68.7761 48.2562L70.2632 48.8141C70.2632 48.8141 70.7279 49.1861 70.7279 49.465V54.2999C70.7279 54.2999 70.542 54.8578 70.2632 54.9508L68.7761 55.4156C68.7761 55.4156 67.9397 55.2296 67.9397 54.7647V48.9072V48.8141ZM61.5269 37.9353C61.5269 37.9353 61.7128 37.1915 61.9916 37.0985L63.6645 36.3548C63.6645 36.3548 64.5939 36.6337 64.5939 37.1916V45.2808C64.5939 45.9317 64.0363 46.3035 63.6645 46.1176L61.9916 45.3739C61.9916 45.3739 61.5269 44.909 61.5269 44.5371V37.8425V37.9353ZM61.5269 49.2789C61.5269 49.2789 61.7128 48.5351 61.9916 48.4421L63.6645 47.6984C63.6645 47.6984 64.5939 47.9773 64.5939 48.5352V56.7175C64.5939 57.3683 64.0363 57.7402 63.6645 57.5543L61.9916 56.8103C61.9916 56.8103 61.5269 56.3454 61.5269 55.9735V49.1861V49.2789Z" fill="#5A514E"/>
<path d="M361.162 282.846V257.927H319.153V152.302H212.087V257.927H199.726V152.302H92.6604V257.927H80.0206V79.498H139.037C141.639 79.498 143.777 77.3596 143.777 74.6631V4.83487C143.777 2.13844 141.639 0 139.037 0H4.73992C2.13762 0 0 2.13844 0 4.83487V74.6631C0 77.3596 2.13762 79.498 4.73992 79.498H63.7563V257.927H18.6808V282.846H60.1317L61.061 289.076H36.3392V299.025H62.5481L63.0128 302.093C59.3882 303.859 56.7858 307.486 56.7858 311.856C56.7858 313.251 57.0647 314.645 57.5294 315.854H77.5113C77.976 314.645 78.2548 313.251 78.2548 311.856C78.2548 307.486 75.6525 303.859 72.0279 302.093L72.4926 299.025H305.491L305.956 302.093C302.331 303.859 299.729 307.486 299.729 311.856C299.729 313.251 300.008 314.645 300.472 315.854H320.454C320.919 314.645 321.198 313.251 321.198 311.856C321.198 307.486 318.595 303.859 314.971 302.093L315.436 299.025H342.946V289.076H316.923L317.852 282.846H360.604H361.162ZM12.0821 9.57696H131.695V17.8521H12.0821V9.57696ZM12.0821 25.8485H131.695V68.9912H12.0821V25.8485ZM251.215 158.624H279.933V179.452H251.215V158.624ZM251.215 230.777H279.933V251.605H251.215V230.777ZM217.199 236.263H244.988V253.092H217.199V236.263ZM131.788 158.624H160.506V179.452H131.788V158.624ZM131.788 230.777H160.506V251.605H131.788V230.777ZM97.772 236.263H125.561V253.092H97.772V236.263ZM304.283 288.983H74.3513L75.2808 282.753H303.353L304.283 288.983Z" fill="#5A514E"/>
<path d="M102.049 238.678H99.0747V250.766H102.049V238.678Z" fill="#5A514E"/>
<path d="M104.837 238.678H103.814V250.766H104.837V238.678Z" fill="#5A514E"/>
<path d="M111.435 238.678H109.018V250.766H111.435V238.678Z" fill="#5A514E"/>
<path d="M107.531 238.678H106.044V250.766H107.531V238.678Z" fill="#5A514E"/>
<path d="M114.315 238.678H113.293V250.766H114.315V238.678Z" fill="#5A514E"/>
<path d="M120.079 238.678H118.034V250.766H120.079V238.678Z" fill="#5A514E"/>
<path d="M121.751 238.678H120.729V250.766H121.751V238.678Z" fill="#5A514E"/>
<path d="M117.105 238.678H115.71V250.766H117.105V238.678Z" fill="#5A514E"/>
<path d="M124.26 238.678H122.773V250.766H124.26V238.678Z" fill="#5A514E"/>
<path d="M221.475 238.678H218.501V250.766H221.475V238.678Z" fill="#5A514E"/>
<path d="M224.265 238.678H223.242V250.766H224.265V238.678Z" fill="#5A514E"/>
<path d="M230.862 238.678H228.446V250.766H230.862V238.678Z" fill="#5A514E"/>
<path d="M226.959 238.678H225.472V250.766H226.959V238.678Z" fill="#5A514E"/>
<path d="M233.743 238.678H232.721V250.766H233.743V238.678Z" fill="#5A514E"/>
<path d="M239.413 238.678H237.461V250.766H239.413V238.678Z" fill="#5A514E"/>
<path d="M241.087 238.678H240.064V250.766H241.087V238.678Z" fill="#5A514E"/>
<path d="M236.532 238.678H235.138V250.766H236.532V238.678Z" fill="#5A514E"/>
<path d="M243.688 238.678H242.201V250.766H243.688V238.678Z" fill="#5A514E"/>
</g>
</svg>
