<svg width="417" height="177" viewBox="0 0 417 177" fill="none" xmlns="http://www.w3.org/2000/svg">
<g style="mix-blend-mode:color-burn" opacity="0.65">
<path fill-rule="evenodd" clip-rule="evenodd" d="M361.737 99.6919L382.208 106.008C381.028 110.02 383.219 114.202 387.178 115.482C391.137 116.677 395.266 114.458 396.529 110.446L417 116.762L401.921 167.035L346.573 150.05L361.653 99.7772L361.737 99.6919ZM101.765 149.623H189.461V147.831C189.63 142.966 190.556 138.271 192.241 133.918H98.9848C100.754 138.527 101.765 143.563 101.765 148.77C101.765 149.026 101.765 149.282 101.765 149.623ZM232.678 145.441C234.531 147.319 234.531 150.391 232.678 152.269C230.824 154.147 227.792 154.147 225.938 152.269C224.085 150.391 224.085 147.319 225.938 145.441C227.792 143.563 230.824 143.563 232.678 145.441ZM236.3 141.771C232.425 137.844 226.191 137.844 222.316 141.771C218.44 145.697 218.44 152.013 222.316 155.939C226.191 159.865 232.425 159.865 236.3 155.939C240.175 152.013 240.175 145.697 236.3 141.771ZM235.036 143.136C231.919 139.978 226.78 139.978 223.664 143.136C220.547 146.294 220.547 151.501 223.664 154.659C226.78 157.817 231.919 157.817 235.036 154.659C238.153 151.501 238.153 146.294 235.036 143.136ZM248.936 128.968C238.069 117.957 220.462 117.957 209.679 128.968C198.812 139.978 198.812 157.817 209.679 168.742C220.547 179.753 238.153 179.753 248.936 168.742L249.442 168.23C249.442 168.23 249.779 167.889 249.947 167.718C250.116 167.547 250.284 167.376 250.453 167.206C250.621 167.035 250.79 166.864 250.874 166.694C251.042 166.523 251.127 166.352 251.295 166.182C251.464 166.011 251.548 165.84 251.716 165.584C251.885 165.413 251.969 165.243 252.137 164.987L252.559 164.389C252.559 164.389 252.811 163.962 252.896 163.792C252.98 163.621 253.148 163.365 253.233 163.194L253.57 162.597C253.57 162.597 253.822 162.17 253.907 161.999C253.991 161.743 254.075 161.573 254.244 161.402C254.328 161.231 254.412 160.975 254.496 160.804C254.581 160.634 254.665 160.378 254.749 160.207C254.833 160.036 254.917 159.78 255.002 159.609L255.254 159.012C255.254 159.012 255.423 158.585 255.507 158.329L255.76 157.646C255.76 157.646 255.929 157.22 255.929 156.963C255.929 156.707 256.013 156.537 256.097 156.281C256.097 156.025 256.181 155.854 256.265 155.598C256.265 155.427 256.35 155.171 256.434 154.915C256.434 154.659 256.518 154.488 256.602 154.232C256.602 153.976 256.687 153.805 256.687 153.549C256.687 153.293 256.687 153.123 256.771 152.867C256.771 152.611 256.771 152.44 256.855 152.184C256.855 151.928 256.855 151.757 256.855 151.501C256.855 151.245 256.855 151.074 256.855 150.818C256.855 150.562 256.855 150.391 256.855 150.135V148.087C256.855 148.087 256.855 147.66 256.855 147.404C256.855 147.148 256.855 146.977 256.855 146.721C256.855 146.465 256.855 146.294 256.855 146.038C256.855 145.782 256.855 145.612 256.855 145.356C256.855 145.099 256.855 144.929 256.771 144.673C256.771 144.417 256.771 144.246 256.687 143.99C256.687 143.734 256.687 143.563 256.602 143.307C256.602 143.051 256.518 142.88 256.434 142.624L256.265 141.941C256.265 141.941 256.181 141.515 256.097 141.259C256.097 141.003 256.013 140.832 255.929 140.576C255.929 140.32 255.76 140.149 255.76 139.893C255.76 139.637 255.591 139.466 255.507 139.21C255.507 139.039 255.339 138.783 255.254 138.613C255.254 138.357 255.086 138.186 255.002 138.015C255.002 137.844 254.833 137.588 254.749 137.418C254.665 137.247 254.581 136.991 254.496 136.82C254.412 136.65 254.328 136.393 254.244 136.223C254.159 136.052 254.075 135.796 253.907 135.625C253.822 135.455 253.654 135.199 253.57 135.028C253.485 134.857 253.317 134.601 253.233 134.43C253.148 134.26 252.98 134.004 252.896 133.833C252.811 133.662 252.643 133.406 252.559 133.235C252.39 133.065 252.306 132.809 252.137 132.638C251.969 132.467 251.885 132.211 251.716 132.04C251.548 131.87 251.464 131.699 251.295 131.443C251.127 131.272 251.042 131.102 250.874 130.846L250.453 130.333C250.453 130.333 250.116 129.992 249.947 129.821C249.779 129.651 249.61 129.48 249.442 129.309C249.273 129.139 249.105 128.968 248.936 128.797V128.968ZM238.238 139.808C233.267 134.772 225.264 134.772 220.378 139.808C215.408 144.843 215.408 152.952 220.378 157.902C225.349 162.938 233.351 162.938 238.238 157.902C243.208 152.867 243.208 144.758 238.238 139.808ZM228.971 110.702C228.971 110.702 229.813 110.702 230.234 110.702H230.571C230.571 110.702 230.993 110.702 231.161 110.702H232.004C232.004 110.702 232.509 110.788 232.846 110.788H232.93C252.222 112.665 266.964 129.139 266.964 148.77C266.964 149.026 266.964 149.282 266.964 149.623H258.793C258.793 149.623 258.793 149.026 258.793 148.77C258.793 148.514 258.793 148.258 258.793 148.087V147.404C258.793 147.404 258.793 146.892 258.793 146.721C258.793 146.465 258.793 146.294 258.793 146.038V145.356C258.793 145.356 258.624 144.843 258.624 144.673V143.99C258.624 143.99 258.456 143.478 258.371 143.307C258.371 143.051 258.287 142.88 258.203 142.624C258.203 142.368 258.119 142.197 258.035 141.941C258.035 141.685 257.95 141.429 257.866 141.259C257.866 141.003 257.698 140.746 257.698 140.576C257.698 140.32 257.529 140.149 257.529 139.893C257.529 139.637 257.361 139.466 257.276 139.21C257.276 138.954 257.108 138.783 257.024 138.527C256.939 138.271 256.855 138.101 256.771 137.844C256.687 137.588 256.603 137.418 256.518 137.162C256.434 136.906 256.35 136.735 256.181 136.479C256.013 136.223 256.013 136.052 255.844 135.796C255.76 135.54 255.591 135.369 255.507 135.113C255.423 134.942 255.255 134.686 255.17 134.516C255.086 134.26 254.918 134.089 254.833 133.833C254.749 133.662 254.581 133.406 254.412 133.235L253.991 132.638C253.991 132.638 253.738 132.211 253.57 132.04C253.401 131.87 253.317 131.614 253.148 131.443C252.98 131.272 252.812 131.016 252.727 130.846C252.559 130.675 252.39 130.419 252.306 130.248C252.138 130.077 251.969 129.821 251.8 129.651L251.295 129.053C251.295 129.053 250.958 128.712 250.79 128.456L250.284 127.944C238.743 116.25 220.126 116.25 208.584 127.944C202.603 134.004 199.739 141.941 199.991 149.879H191.736V148.172C191.989 138.015 196.201 128.456 203.445 121.457C208.584 116.506 214.902 113.178 221.81 111.727H221.895C221.895 111.727 222.4 111.641 222.653 111.556H223.327L223.832 111.385H224.674L225.096 111.214H226.359L226.949 111.044H229.055L228.971 110.702ZM94.857 0H278.505C280.611 0 282.296 1.70706 282.296 3.84087V122.908C282.296 125.042 280.611 126.749 278.505 126.749H263.005C256.518 116.677 245.819 109.593 233.183 108.398H233.099C233.099 108.398 232.509 108.398 232.256 108.398H231.414C231.414 108.398 230.993 108.398 230.74 108.398H230.403C229.898 108.398 229.476 108.398 228.971 108.398H227.707C227.707 108.398 227.202 108.398 226.949 108.398H225.77L225.348 108.569H224.338L223.832 108.739H223.411L222.905 108.91H222.4L222.147 109.081C222.147 109.081 221.642 109.166 221.389 109.251H221.305C213.976 110.788 207.236 114.373 201.761 119.664C199.486 121.884 197.464 124.359 195.779 127.005H95.6152C94.3516 124.956 92.835 123.078 91.2344 121.371V4.18228C91.2344 2.04846 92.9194 0.341418 95.0254 0.341418L94.857 0ZM65.2879 145.356C67.1412 147.233 67.1412 150.306 65.2879 152.184C63.4345 154.061 60.4019 154.061 58.5486 152.184C56.6953 150.306 56.6953 147.233 58.5486 145.356C60.4019 143.478 63.4345 143.478 65.2879 145.356ZM68.9102 141.685C65.0351 137.759 58.8011 137.759 54.926 141.685C51.0508 145.612 51.0508 151.928 54.926 155.854C58.8011 159.78 65.0351 159.78 68.9102 155.854C72.7854 151.928 72.7854 145.612 68.9102 141.685ZM67.5623 143.051C64.4454 139.893 59.3065 139.893 56.1895 143.051C53.0726 146.209 53.0726 151.416 56.1895 154.574C59.3065 157.732 64.4454 157.732 67.5623 154.574C70.6793 151.416 70.6793 146.209 67.5623 143.051ZM81.5466 128.882C70.6793 117.872 53.0726 117.872 42.2896 128.882C31.5066 139.893 31.4223 157.732 42.2896 168.657C53.1569 179.667 70.7636 179.667 81.5466 168.657L82.052 168.145C82.052 168.145 82.389 167.803 82.5575 167.633L83.0629 167.12C83.0629 167.12 83.4 166.779 83.4843 166.608C83.6528 166.438 83.7369 166.267 83.9054 166.096C84.0739 165.926 84.1583 165.755 84.3267 165.499C84.4952 165.328 84.5794 165.157 84.7479 164.901C84.9163 164.731 85.0005 164.475 85.169 164.304C85.3374 164.133 85.4218 163.877 85.506 163.706C85.5902 163.536 85.7588 163.28 85.843 163.109C85.9273 162.938 86.0958 162.682 86.1801 162.511C86.2643 162.341 86.4326 162.085 86.5169 161.914C86.6011 161.658 86.6854 161.487 86.8539 161.316L87.1066 160.719C87.1066 160.719 87.2751 160.292 87.3594 160.122C87.4436 159.951 87.5278 159.695 87.6121 159.524C87.6121 159.268 87.7805 159.097 87.8648 158.927C87.8648 158.671 88.0333 158.5 88.1175 158.244C88.1175 157.988 88.286 157.817 88.3702 157.561C88.3702 157.305 88.5389 157.134 88.5389 156.878C88.5389 156.622 88.7073 156.451 88.7073 156.195C88.7073 155.939 88.7914 155.769 88.8756 155.512C88.8756 155.342 88.9601 155.086 89.0443 154.83C89.1285 154.574 89.1284 154.403 89.2127 154.147C89.2127 153.891 89.2128 153.72 89.297 153.464C89.297 153.208 89.2968 153.037 89.3811 152.781C89.3811 152.525 89.3812 152.354 89.4654 152.098C89.4654 151.842 89.4654 151.672 89.4654 151.416V150.733C89.4654 150.733 89.5497 150.306 89.5497 150.05C89.5497 149.794 89.5497 149.623 89.5497 149.367V148.001C89.5497 148.001 89.5497 147.575 89.5497 147.319C89.5497 147.063 89.5497 146.892 89.5497 146.636V145.953C89.5497 145.953 89.4653 145.526 89.3811 145.27C89.3811 145.014 89.3813 144.843 89.297 144.587C89.297 144.331 89.2969 144.161 89.2127 143.905V143.222C89.2127 143.222 89.0442 142.795 88.96 142.539C88.96 142.283 88.8758 142.112 88.7916 141.856C88.7916 141.6 88.7072 141.429 88.6229 141.173C88.6229 140.917 88.5388 140.746 88.4545 140.49C88.4545 140.234 88.3704 140.064 88.2861 139.808C88.2861 139.552 88.1177 139.381 88.0334 139.125C88.0334 138.954 87.8647 138.698 87.7805 138.527C87.7805 138.271 87.612 138.101 87.5277 137.93C87.4435 137.759 87.3593 137.503 87.275 137.332C87.1908 137.162 87.1066 136.906 87.0223 136.735C86.9381 136.564 86.8538 136.308 86.7696 136.137C86.6853 135.967 86.6013 135.711 86.4328 135.54C86.3486 135.369 86.18 135.113 86.0958 134.942C86.0115 134.772 85.843 134.516 85.7587 134.345C85.6745 134.174 85.5059 133.918 85.4217 133.748C85.3374 133.577 85.1691 133.321 85.0849 133.15C85.0007 132.979 84.832 132.723 84.6635 132.553L84.2424 131.955C84.2424 131.955 83.9898 131.614 83.8213 131.358C83.6528 131.187 83.5684 131.016 83.3999 130.76C83.2315 130.59 83.0631 130.419 82.9788 130.248L82.4734 129.736C82.4734 129.736 82.1365 129.395 81.968 129.224C81.7995 129.053 81.6308 128.882 81.4623 128.712L81.5466 128.882ZM70.8479 139.722C65.8776 134.686 57.8746 134.686 52.9886 139.722C48.0183 144.758 48.0183 152.867 52.9886 157.817C57.9589 162.853 65.9618 162.853 70.8479 157.817C75.8182 152.781 75.8182 144.673 70.8479 139.722ZM61.5812 110.617C61.5812 110.617 62.4236 110.617 62.8448 110.617H63.1818C63.1818 110.617 63.6031 110.617 63.7716 110.617H64.6138C64.6138 110.617 65.1193 110.702 65.4563 110.702H65.5406C84.8321 112.58 99.5746 129.053 99.5746 148.684C99.5746 148.94 99.5746 149.196 99.5746 149.538H91.4031C91.4031 149.538 91.4031 148.94 91.4031 148.684C91.4031 148.428 91.4031 148.172 91.4031 148.001V147.319C91.4031 147.319 91.4031 146.806 91.4031 146.636C91.4031 146.38 91.4031 146.209 91.4031 145.953V145.27C91.4031 145.27 91.2344 144.758 91.2344 144.587C91.2344 144.331 91.2346 144.161 91.1504 143.905C91.1504 143.648 91.1502 143.392 90.9817 143.222C90.9817 142.966 90.8976 142.795 90.8133 142.539C90.8133 142.283 90.7292 142.112 90.6449 141.856C90.6449 141.6 90.5605 141.344 90.4763 141.173C90.4763 140.917 90.3079 140.661 90.3079 140.49C90.3079 140.234 90.1395 140.064 90.1395 139.808L89.8865 139.125C89.8865 139.125 89.718 138.698 89.6338 138.442C89.5496 138.186 89.4653 138.015 89.3811 137.759C89.2968 137.503 89.2126 137.332 89.1284 137.076L88.7916 136.393C88.7916 136.393 88.623 135.967 88.4545 135.711C88.3703 135.455 88.2017 135.284 88.1175 135.028C88.0333 134.857 87.8647 134.601 87.7805 134.43C87.6962 134.174 87.5279 134.004 87.4437 133.748C87.3594 133.577 87.1909 133.321 87.1066 133.15L86.6855 132.553C86.6855 132.553 86.4326 132.126 86.2642 131.955C86.0957 131.784 86.0115 131.528 85.843 131.358C85.6746 131.187 85.5902 130.931 85.4217 130.76C85.2532 130.59 85.0847 130.333 84.9162 130.163C84.7478 129.992 84.5793 129.736 84.4108 129.565C84.2423 129.395 84.0739 129.224 83.9054 128.968C83.7369 128.797 83.5684 128.626 83.3999 128.37C83.2315 128.2 83.063 128.029 82.8945 127.858C71.3533 116.165 52.7356 116.165 41.1944 127.858C35.2132 133.918 32.349 141.856 32.6018 149.794H24.3459V148.087C24.5987 137.93 28.8109 128.37 36.0557 121.371C41.1945 116.421 47.5127 113.092 54.4205 111.641H54.5049C54.5049 111.641 55.0103 111.556 55.263 111.471H55.9368L56.4425 111.3H57.2847L57.7061 111.129H58.9697L59.5595 110.958H61.6655L61.5812 110.617ZM82.3047 40.4571C81.8835 37.7259 80.1987 36.2749 77.0818 36.1895H33.8654C28.7266 36.3602 28.5583 37.6405 27.2104 39.945L0 90.9859V126.066V147.916V148.087V148.258V148.428V148.599V148.77V148.94H0.0841961V149.111H0.168521V149.282H0.336913V149.452H0.505434V149.623H0.926672V149.794H21.7346V148.001C21.9873 137.247 26.452 127.175 34.1181 119.75C39.5096 114.543 46.249 110.958 53.5781 109.422H53.6624C53.6624 109.422 54.1678 109.337 54.4205 109.251H54.6732L55.1787 109.081H55.6841L56.1055 108.91H56.6109L57.1164 108.739H58.0429L58.4643 108.569H59.2224C59.2224 108.569 59.7278 108.569 59.9806 108.483H61.2441C61.6654 108.483 62.1708 108.483 62.5921 108.483H62.9291C62.9291 108.483 63.3502 108.483 63.6029 108.483H64.4454C64.4454 108.483 65.0351 108.569 65.2879 108.654H65.3722C65.3722 108.654 65.9618 108.654 66.2987 108.739H67.2255V108.91C67.2255 108.91 67.8994 108.995 68.2364 109.081C68.2364 109.081 68.826 109.166 69.163 109.251C69.163 109.251 69.7528 109.337 70.0898 109.422C70.0898 109.422 70.6792 109.593 70.932 109.593H71.0163C71.0163 109.593 71.5217 109.763 71.7745 109.849H71.8588C71.8588 109.849 72.3642 110.02 72.6169 110.105H72.7853C72.7853 110.105 73.2909 110.276 73.4594 110.361H73.7121C73.7121 110.361 74.2175 110.617 74.3859 110.702H74.5546L75.1441 110.958H75.4811L76.0709 111.3L76.4079 111.471L76.9134 111.727H77.1661L77.6715 112.068L78.0926 112.239L78.514 112.495L78.8508 112.665L79.2721 112.836L79.6092 113.007L79.8619 113.178L80.3673 113.519L80.6201 113.69L81.1255 113.946H81.2096L81.4623 114.116L81.968 114.373C84.2425 115.738 86.3486 117.445 88.2861 119.238V62.2221H81.7152V40.7132H81.6309L82.3047 40.4571ZM23.0823 113.348C35.9714 99.5212 55.4314 93.8025 73.6278 98.4116L73.9648 45.5783C73.9648 44.1273 73.6278 43.2738 72.6169 43.1884H35.8874C33.6128 43.1884 32.8546 43.3591 31.3382 46.3465L7.83448 90.5591V113.519H23.0823V113.348ZM269.239 149.367H274.799C275.557 149.367 276.147 148.77 276.147 148.001V134.942C276.147 134.174 275.557 133.577 274.799 133.577H266.459C268.228 138.186 269.239 143.222 269.239 148.428C269.239 148.684 269.239 148.94 269.239 149.282V149.367ZM96.5417 128.37C97.1314 129.48 97.7212 130.589 98.2267 131.699H193.083C193.589 130.589 194.179 129.395 194.768 128.37H96.4577H96.5417ZM263.931 128.37C264.521 129.48 265.111 130.589 265.616 131.699H268.902V128.37H263.931ZM279.853 149.794L367.128 176.68H412.788C413.799 176.424 413.883 173.949 412.788 173.437L284.739 133.833C283.391 133.406 281.875 134.004 281.117 135.113H277.663V146.038C277.41 147.575 278.253 149.196 279.853 149.708V149.794ZM303.947 81.6825L288.867 131.955L344.214 148.94L359.294 98.6676L338.823 92.3515C337.644 96.3631 333.431 98.6676 329.472 97.3873C325.513 96.1924 323.238 91.9248 324.502 87.9132L304.031 81.5971L303.947 81.6825ZM295.944 127.688L297.039 128.029L299.313 120.433L297.46 119.835L299.987 117.36L302.515 114.885L303.273 118.384L303.947 121.884L302.093 121.286L299.819 128.882L304.452 130.333L306.727 122.737L304.873 122.14L307.401 119.664L309.928 117.189L310.686 120.689L311.444 124.188L309.591 123.591L307.316 131.187L308.411 131.528L308.075 132.553L295.859 128.797L296.196 127.688H295.944ZM368.729 140.234C368.897 137.418 367.128 134.686 364.264 133.833C361.484 132.979 358.536 134.26 357.019 136.65L362.242 138.271L359.884 146.038C359.631 146.636 359.041 146.977 358.367 146.807C357.778 146.636 357.356 145.953 357.525 145.356L356.43 145.014C356.093 146.294 356.851 147.575 358.03 147.916C359.294 148.258 360.558 147.66 360.979 146.38L363.338 138.613L368.561 140.234H368.729Z" fill="#5A514E"/>
</g>
</svg>
