<svg width="442" height="297" viewBox="0 0 442 297" fill="none" xmlns="http://www.w3.org/2000/svg">
<g style="mix-blend-mode:color-burn" opacity="0.65">
<path fill-rule="evenodd" clip-rule="evenodd" d="M426.715 0H439.916C441.074 0 442 0.923351 442 2.07764V294.461C442 295.615 441.074 296.538 439.916 296.538H426.715C425.557 296.538 424.63 295.615 424.63 294.461V283.264H427.525V260.409H424.63V205.695H427.525V182.84H424.63V128.127H427.525V105.272H424.63V50.5581H427.525V27.703H424.63V2.19319C424.63 1.03889 425.557 0.115542 426.715 0.115542V0ZM36.7077 219.547H84.5322V227.627H83.0268V260.871H36.7077V227.627H35.2023V219.547H36.7077ZM40.7607 220.932V229.704L42.4976 228.781L44.003 229.704L45.0452 229.243L46.2032 229.82V221.047H40.7607V220.932ZM73.6472 220.932V229.704L75.3841 228.781L76.8895 229.704L77.9317 229.243L79.0897 229.82V221.047H73.6472V220.932ZM41.1081 256.484V257.523H52.2246V256.484H51.2983V249.558H53.0352L51.5298 246.788L50.0247 244.018L48.5193 246.788L47.0139 249.558H48.7508V256.484H44.4663V249.558H46.2032L44.6978 246.788L43.1923 244.018L41.6873 246.788L40.1818 249.558H41.9187V256.484H40.9922H41.1081ZM147.063 219.547H194.888V227.627H193.382V260.871H147.063V227.627H145.558V219.547H147.063ZM151.116 220.932V229.704L152.853 228.781L154.358 229.704L155.4 229.243L156.558 229.82V221.047H151.116V220.932ZM184.003 220.932V229.704L185.739 228.781L187.245 229.704L188.287 229.243L189.445 229.82V221.047H184.003V220.932ZM151.463 256.484V257.523H162.58V256.484H161.654V249.558H163.391L161.885 246.788L160.38 244.018L158.875 246.788L157.369 249.558H159.106V256.484H154.822V249.558H156.558L155.053 246.788L153.548 244.018L152.043 246.788L150.537 249.558H152.274V256.484H151.348H151.463ZM88.3538 212.159H144.631V221.74H142.894V260.871H88.3538V221.74H86.6165V212.159H88.3538ZM93.1012 213.775V224.164L95.1858 223.125L96.9227 224.164L98.1963 223.587L99.5862 224.279V213.891H93.2171L93.1012 213.775ZM131.778 213.775V224.164L133.862 223.125L135.599 224.164L136.873 223.587L138.263 224.279V213.891H131.893L131.778 213.775ZM93.5645 255.561V256.715H106.65V255.561H105.608V247.481H107.692L105.955 244.249L104.218 241.017L102.481 244.249L100.744 247.481H102.828V255.561H97.8489V247.481H99.9335L98.1963 244.249L96.4594 241.017L94.7225 244.249L92.9856 247.481H95.0699V255.561H94.0277H93.5645ZM329.329 61.293H380.975V70.0657H379.353V105.964H329.329V70.0657H327.708V61.293H329.329ZM333.613 62.7936V72.2589L335.466 71.3353L337.087 72.2589L338.245 71.6819L339.519 72.2589V62.7936H333.613ZM369.048 62.7936V72.2589L370.9 71.3353L372.521 72.2589L373.679 71.6819L374.953 72.2589V62.7936H369.048ZM333.961 101.232V102.271H345.888V101.232H344.961V93.8442H346.814L345.193 90.8429L343.572 87.842L341.951 90.8429L340.33 93.8442H342.182V101.232H337.55V93.8442H339.403L337.782 90.8429L336.161 87.842L334.54 90.8429L332.919 93.8442H334.771V101.232H333.845H333.961ZM264.598 53.4439H325.392V63.8325H323.539V106.195H264.598V63.8325H262.745V53.4439H264.598ZM269.693 55.1752V66.3719L271.893 65.2175L273.746 66.3719L275.135 65.6794L276.641 66.3719V55.1752H269.693ZM311.496 55.1752V66.3719L313.696 65.2175L315.549 66.3719L316.939 65.6794L318.444 66.3719V55.1752H311.496ZM270.156 100.424V101.693H284.283V100.424H283.125V91.651H285.326L283.473 88.1882L281.62 84.7252L279.768 88.1882L277.915 91.651H280.115V100.424H274.672V91.651H276.873L275.02 88.1882L273.167 84.7252L271.314 88.1882L269.461 91.651H271.662V100.424H270.503H270.156ZM120.198 61.4085H171.844V70.1813H170.223V106.08H120.198V70.1813H118.577V61.4085H120.198ZM124.483 62.9092V72.3745L126.335 71.4508L127.956 72.3745L129.114 71.7971L130.388 72.3745V62.9092H124.483ZM160.033 62.9092V72.3745L161.885 71.4508L163.506 72.3745L164.664 71.7971L165.938 72.3745V62.9092H160.033ZM124.946 101.347V102.386H136.873V101.347H135.946V93.9597H137.799L136.178 90.9584L134.557 87.9572L132.936 90.9584L131.315 93.9597H133.167V101.347H128.536V93.9597H130.388L128.767 90.9584L127.146 87.9572L125.525 90.9584L123.903 93.9597H125.756V101.347H124.83H124.946ZM64.7309 61.4085H116.377V70.1813H114.756V106.08H64.7309V70.1813H63.1096V61.4085H64.7309ZM69.0154 62.9092V72.3745L70.8682 71.4508L72.4892 72.3745L73.6472 71.7971L74.9212 72.3745V62.9092H69.0154ZM104.565 62.9092V72.3745L106.418 71.4508L108.039 72.3745L109.197 71.7971L110.471 72.3745V62.9092H104.565ZM69.4787 101.347V102.386H81.4058V101.347H80.4793V93.9597H82.3321L80.7111 90.9584L79.0897 87.9572L77.4688 90.9584L75.8474 93.9597H77.7002V101.347H73.0684V93.9597H74.9212L73.2998 90.9584L71.6789 87.9572L70.0575 90.9584L68.4365 93.9597H70.2893V101.347H69.3628H69.4787ZM251.397 140.593H269.345C269.345 144.056 272.125 146.826 275.599 146.826C279.073 146.826 281.852 144.056 281.852 140.593H299.8V183.764H251.513V140.593H251.397ZM302.348 140.593H320.297C320.297 144.056 323.076 146.826 326.55 146.826C330.023 146.826 332.803 144.056 332.803 140.593H350.751V183.764H302.464V140.593H302.348ZM353.299 140.593H371.248C371.248 144.056 374.027 146.826 377.501 146.826C380.975 146.826 383.754 144.056 383.754 140.593H401.703V183.764H353.415V140.593H353.299ZM144.863 137.13H164.201C164.201 140.824 167.212 143.825 170.917 143.825C174.623 143.825 177.634 140.824 177.634 137.13H196.972V183.764H144.863V137.13ZM90.0907 137.13H109.429C109.429 140.824 112.44 143.825 116.145 143.825C119.851 143.825 122.861 140.824 122.861 137.13H142.2V183.764H90.0907V137.13ZM35.3182 137.13H54.6566C54.6566 140.824 57.6672 143.825 61.3727 143.825C65.0782 143.825 68.0892 140.824 68.0892 137.13H87.4272V183.764H35.3182V137.13ZM251.397 217.815H269.345C269.345 221.278 272.125 224.049 275.599 224.049C279.073 224.049 281.852 221.278 281.852 217.815H299.8V260.986H251.513V217.815H251.397ZM302.348 217.815H320.297C320.297 221.278 323.076 224.049 326.55 224.049C330.023 224.049 332.803 221.278 332.803 217.815H350.751V260.986H302.464V217.815H302.348ZM353.299 217.815H371.248C371.248 221.278 374.027 224.049 377.501 224.049C380.975 224.049 383.754 221.278 383.754 217.815H401.703V260.986H353.415V217.815H353.299ZM424.283 280.147H229.627V263.641H424.283V280.147ZM2.08428 0.577358H15.2854C16.4434 0.577358 17.3697 1.50071 17.3697 2.655V28.1648H14.1273V51.02H17.3697V105.733H14.1273V128.589H17.3697V183.302H14.1273V206.157H17.3697V260.871H14.2429V283.726H17.3697V294.922C17.3697 296.077 16.4434 297 15.2854 297H2.08428C0.926298 297 0 296.077 0 294.922V2.53946C0 1.38517 0.926298 0.461816 2.08428 0.461816V0.577358ZM17.3697 31.3968V47.9031H212.142V31.3968H17.3697ZM212.142 28.1648V2.30873C212.142 1.15444 213.068 0.231084 214.226 0.231084H227.427C228.585 0.231084 229.511 1.15444 229.511 2.30873V27.8185H226.269V50.6737H229.511V105.387H226.269V128.242H229.511V182.956H226.269V205.811H229.511V260.524H226.269V283.379H229.511V294.576C229.511 295.73 228.585 296.654 227.427 296.654H214.226C213.068 296.654 212.142 295.73 212.142 294.576V283.726H215.268V260.871H212.142V206.157H215.384V183.302H212.142V128.589H215.384V105.733H212.142V51.02H215.384V28.1648H212.142ZM229.511 30.935V47.4417H424.283V30.935H229.511ZM229.511 108.504V125.01H424.283V108.504H229.511ZM229.511 186.072V202.579H424.283V186.072H229.511ZM212.026 280.494H17.3697V263.987H212.026V280.494ZM212.026 202.925V186.418H17.2538V202.925H212.026ZM17.2538 108.85V125.357H212.026V108.85H17.2538Z" fill="#5A514E"/>
</g>
</svg>
