<svg width="124" height="62" viewBox="0 0 124 62" fill="none" xmlns="http://www.w3.org/2000/svg">
<g clip-path="url(#clip0_85_2040)">
<path d="M94.7921 0H28.5344V59.7701H94.7921V0Z" fill="#FFA146"/>
<path d="M95.6759 0H27.6646V9.94992H95.6759V0Z" fill="#FFA146"/>
<path fill-rule="evenodd" clip-rule="evenodd" d="M94.7921 59.7701H69.9192L28.5344 9.94995H94.7921V59.7701Z" fill="#ED7425"/>
<path fill-rule="evenodd" clip-rule="evenodd" d="M89.1105 0H81.8296V13.7605L83.4008 13.0125L84.8177 13.7041L86.7817 12.5327L89.1105 13.7605V0Z" fill="#DD3E13"/>
<path fill-rule="evenodd" clip-rule="evenodd" d="M41.5109 0H34.23V13.7605L35.8012 13.0125L37.2181 13.7041L39.1821 12.5327L41.5109 13.7605V0Z" fill="#DD3E13"/>
<path d="M57.8546 27.2529H31.3823V39.588H57.8546V27.2529Z" fill="#E1EEF6"/>
<path d="M33.7252 28.1561H32.8975V37.1181H33.7252V28.1561Z" fill="#435D76"/>
<path d="M35.3665 28.1561H34.5388V37.1181H35.3665V28.1561Z" fill="#435D76"/>
<path d="M40.3045 28.1561H39.4768V37.1181H40.3045V28.1561Z" fill="#435D76"/>
<path d="M45.2286 28.1561H44.4009V37.1181H45.2286V28.1561Z" fill="#435D76"/>
<path d="M49.5355 28.1561H48.7078V37.1181H49.5355V28.1561Z" fill="#435D76"/>
<path d="M36.152 28.1561H35.7451V37.1181H36.152V28.1561Z" fill="#435D76"/>
<path d="M41.0902 28.1561H40.6833V37.1181H41.0902V28.1561Z" fill="#435D76"/>
<path d="M46.0282 28.1561H45.6213V37.1181H46.0282V28.1561Z" fill="#435D76"/>
<path d="M50.3211 28.1561H49.9143V37.1181H50.3211V28.1561Z" fill="#435D76"/>
<path d="M37.9478 28.1561H37.1201V37.1181H37.9478V28.1561Z" fill="#435D76"/>
<path d="M42.8858 28.1561H42.0581V37.1181H42.8858V28.1561Z" fill="#435D76"/>
<path d="M47.824 28.1561H46.9963V37.1181H47.824V28.1561Z" fill="#435D76"/>
<path d="M52.1168 28.1561H51.2891V37.1181H52.1168V28.1561Z" fill="#435D76"/>
<path d="M36.8536 28.1561H36.4468V38.6988H36.8536V28.1561Z" fill="#435D76"/>
<path d="M41.7777 28.1561H41.3708V37.1181H41.7777V28.1561Z" fill="#435D76"/>
<path d="M46.7157 28.1561H46.3088V37.1181H46.7157V28.1561Z" fill="#435D76"/>
<path d="M51.0226 28.1561H50.6157V37.1181H51.0226V28.1561Z" fill="#435D76"/>
<path d="M34.3424 28.1561H33.9355V37.1181H34.3424V28.1561Z" fill="#435D76"/>
<path d="M39.2804 28.1561H38.8735V37.1181H39.2804V28.1561Z" fill="#435D76"/>
<path d="M44.2186 28.1561H43.8118V37.1181H44.2186V28.1561Z" fill="#435D76"/>
<path d="M48.5255 28.1561H48.1187V37.1181H48.5255V28.1561Z" fill="#435D76"/>
<path d="M53.7862 28.1561H52.9585V37.1181H53.7862V28.1561Z" fill="#435D76"/>
<path d="M54.5719 28.1561H54.165V37.1181H54.5719V28.1561Z" fill="#435D76"/>
<path d="M56.3675 28.1561H55.5398V37.1181H56.3675V28.1561Z" fill="#435D76"/>
<path d="M55.2591 28.1561H54.8523V37.1181H55.2591V28.1561Z" fill="#435D76"/>
<path d="M52.7621 28.1561H52.3552V37.1181H52.7621V28.1561Z" fill="#435D76"/>
<path fill-rule="evenodd" clip-rule="evenodd" d="M56.7743 18.3615C56.4095 16.8654 55.0487 15.7505 53.4494 15.7505C51.8502 15.7505 50.5034 16.8654 50.1387 18.3615H56.7743Z" fill="#435D76"/>
<path fill-rule="evenodd" clip-rule="evenodd" d="M53.7861 22.7649C53.758 23.4705 53.1829 24.021 52.4814 24.021C51.78 24.021 51.2048 23.4564 51.1768 22.7649H51.8081C51.8361 23.1036 52.1167 23.3859 52.4674 23.3859C52.8181 23.3859 53.0987 23.1177 53.1268 22.7649V18.1216H53.7721V22.7649H53.7861Z" fill="#435D76"/>
<path d="M46.1124 19.1095H45.4951V23.527H46.1124V19.1095Z" fill="#435D76"/>
<path fill-rule="evenodd" clip-rule="evenodd" d="M48.2168 15.7365V18.6156C48.2168 19.9563 47.1365 21.0431 45.8038 21.0431C44.4711 21.0431 43.3909 19.9563 43.3909 18.6156V15.7365H48.2168Z" fill="#435D76"/>
<path fill-rule="evenodd" clip-rule="evenodd" d="M44.429 23.527H47.1927C47.5714 23.527 47.8801 23.7387 47.8801 24.0068H43.7556C43.7556 23.7387 44.0642 23.527 44.443 23.527H44.429Z" fill="#435D76"/>
<path fill-rule="evenodd" clip-rule="evenodd" d="M36.629 19.1378V23.4141H35.0718V19.1378H34.0056L34.9315 17.4442L35.8434 15.7365L36.7693 17.4442L37.6952 19.1378H36.629Z" fill="#435D76"/>
<path fill-rule="evenodd" clip-rule="evenodd" d="M40.8097 19.1378V23.4141H39.2525V19.1378H38.1863L39.1122 17.4442L40.0381 15.7365L40.9499 17.4442L41.8758 19.1378H40.8097Z" fill="#435D76"/>
<path d="M41.4269 23.4141H34.4546V24.0068H41.4269V23.4141Z" fill="#435D76"/>
<path fill-rule="evenodd" clip-rule="evenodd" d="M107.741 44.4853L106.759 45.4732C102.452 49.7919 104.374 56.2558 92.9965 61.0403C87.8339 62.4657 81.9839 62.0423 78.7994 61.3508C78.0278 60.1652 79.1922 58.6692 80.7634 58.4999C83.976 59.0644 87.3569 59.0644 90.6957 58.4434C91.0465 58.4152 91.0044 58.0341 90.6957 58.0623C87.1184 58.768 83.8778 58.7398 80.8756 58.2035C80.4828 56.7639 81.3526 55.3667 83.4289 55.2114C87.0904 55.0562 90.4713 55.3244 92.758 53.7719C95.7601 51.048 92.6037 48.8887 90.7098 50.8222L89.0404 52.3041C87.1184 54.2094 85.1965 53.7437 84.2004 52.0077C85.7155 51.2456 88.1004 49.2133 89.4612 47.435C91.1868 45.1063 93.1648 43.0316 95.3954 41.2251C96.9526 39.7997 98.4396 39.7009 100.011 39.8561C100.895 40.096 101.778 39.475 102.073 38.7976L107.755 44.5135L107.741 44.4853Z" fill="#FECA5C"/>
<path d="M113.682 22.8107L101.848 34.7164L112.175 45.1053L124.009 33.1995L113.682 22.8107Z" fill="#5A514E"/>
<path d="M102.315 35.1795L100.401 37.1062L109.739 46.4938L111.653 44.567L102.315 35.1795Z" fill="#E1EFFA"/>
<path d="M121.81 30.9712L109.976 42.877L112.178 45.0924L124.012 33.1867L121.81 30.9712Z" fill="#77716F"/>
<path d="M109.976 42.8814L108.062 44.8081L109.739 46.4941L111.653 44.5673L109.976 42.8814Z" fill="#AAD3EF"/>
<path fill-rule="evenodd" clip-rule="evenodd" d="M16.2734 44.4853L17.2554 45.4732C21.5623 49.7919 19.6403 56.2558 31.0176 61.0403C36.1802 62.4657 42.0442 62.0423 45.2147 61.3508C45.9863 60.1652 44.8219 58.6692 43.2507 58.4999C40.0381 59.0644 36.6572 59.0644 33.3184 58.4434C32.9676 58.4152 33.0097 58.0341 33.3184 58.0623C36.8957 58.768 40.1363 58.7398 43.1385 58.2035C43.5313 56.7639 42.6615 55.3667 40.5852 55.2114C36.9237 55.0562 33.5428 55.3244 31.2702 53.7719C28.268 51.048 31.4245 48.8887 33.3184 50.8222L34.9878 52.3041C36.9097 54.2094 38.8316 53.7437 39.8277 52.0077C38.3126 51.2456 35.9277 49.2133 34.5669 47.435C32.8414 45.1063 30.8633 43.0316 28.6328 41.2251C27.0756 39.7997 25.5885 39.7009 24.0173 39.8561C23.1335 40.096 22.2497 39.475 21.9551 38.7976L16.2734 44.5135V44.4853Z" fill="#FECA5C"/>
<path d="M10.3177 22.805L-0.00878906 33.1938L11.8256 45.0996L22.1521 34.7108L10.3177 22.805Z" fill="#5A514E"/>
<path d="M21.6832 35.1836L12.3486 44.5745L14.2632 46.5005L23.5977 37.1097L21.6832 35.1836Z" fill="#E1EEF6"/>
<path d="M2.20611 30.9813L0.00390625 33.1968L11.8382 45.1025L14.0404 42.887L2.20611 30.9813Z" fill="#77716F"/>
<path d="M14.0414 42.8802L12.3545 44.5762L14.2683 46.5029L15.9553 44.807L14.0414 42.8802Z" fill="#AAD3EF"/>
</g>
<defs>
<clipPath id="clip0_85_2040">
<rect width="124" height="62" fill="white"/>
</clipPath>
</defs>
</svg>
