<svg width="320" height="249" viewBox="0 0 320 249" fill="none" xmlns="http://www.w3.org/2000/svg">
<g style="mix-blend-mode:color-burn" opacity="0.65">
<path fill-rule="evenodd" clip-rule="evenodd" d="M117.339 217.411H219.206V215.339C219.385 209.755 220.458 204.352 222.515 199.308H114.209C116.266 204.622 117.429 210.476 117.429 216.51C117.429 216.78 117.429 217.141 117.429 217.411H117.339ZM265.176 172.469C265.623 172.469 266.16 172.469 266.696 172.469H268.754C268.754 172.469 269.38 172.65 269.737 172.65H269.827C292.275 174.811 309.357 193.814 309.357 216.51C309.357 216.78 309.357 217.141 309.357 217.411H299.877C299.877 217.411 299.877 216.78 299.877 216.51C299.877 216.24 299.877 215.97 299.877 215.7V214.889C299.877 214.889 299.877 214.349 299.877 214.078C299.877 213.808 299.877 213.538 299.877 213.268C299.877 212.998 299.877 212.727 299.877 212.457C299.877 212.187 299.877 211.917 299.788 211.647C299.788 211.376 299.788 211.106 299.698 210.836C299.698 210.566 299.609 210.296 299.519 210.026C299.519 209.755 299.43 209.485 299.34 209.215C299.34 208.945 299.251 208.675 299.162 208.405C299.162 208.134 298.983 207.864 298.983 207.594C298.983 207.324 298.804 207.054 298.714 206.783C298.714 206.513 298.536 206.243 298.446 205.973C298.446 205.702 298.267 205.432 298.178 205.162C298.088 204.892 297.999 204.622 297.91 204.352C297.82 204.081 297.731 203.811 297.641 203.541C297.552 203.271 297.462 203.001 297.283 202.731C297.194 202.46 297.015 202.19 296.926 201.92L296.568 201.199C296.568 201.199 296.3 200.659 296.21 200.479C296.121 200.209 295.942 199.939 295.852 199.759C295.674 199.488 295.584 199.218 295.405 199.038C295.226 198.768 295.137 198.588 294.958 198.318C294.779 198.047 294.69 197.867 294.511 197.597C294.332 197.327 294.153 197.147 294.064 196.877C293.885 196.606 293.706 196.426 293.527 196.156C293.348 195.886 293.169 195.706 292.991 195.436C292.812 195.165 292.633 194.985 292.454 194.715C292.275 194.445 292.096 194.265 291.917 194.085C291.738 193.905 291.56 193.634 291.381 193.454L290.755 192.824C290.755 192.824 290.307 192.373 290.129 192.193C276.713 178.684 255.07 178.684 241.655 192.193C234.679 199.128 231.369 208.404 231.638 217.501H222.068V215.52C222.426 203.811 227.256 192.734 235.662 184.718C241.565 179.044 248.988 175.171 256.948 173.46H257.038C257.038 173.46 257.574 173.37 257.842 173.28H258.111L258.647 173.1H259.184L259.631 172.92H260.168L260.704 172.74H261.688L262.135 172.56H263.03C263.03 172.56 263.566 172.469 263.835 172.469H265.266H265.176ZM288.429 193.544C275.819 180.845 255.428 180.845 242.817 193.544C230.207 206.243 230.207 226.777 242.817 239.476C255.428 252.175 275.819 252.175 288.429 239.476C288.608 239.296 288.787 239.116 289.055 238.846C289.234 238.666 289.413 238.395 289.592 238.215C289.771 238.035 289.95 237.765 290.129 237.585C290.307 237.405 290.486 237.134 290.665 236.954C290.844 236.774 291.023 236.504 291.202 236.324C291.381 236.144 291.56 235.874 291.738 235.693L292.186 235.063C292.186 235.063 292.454 234.613 292.633 234.432C292.812 234.162 292.901 233.982 293.08 233.712C293.259 233.442 293.348 233.262 293.527 232.991C293.706 232.721 293.795 232.541 293.885 232.271C293.974 232.001 294.153 231.821 294.243 231.551C294.332 231.28 294.511 231.1 294.6 230.83L294.958 230.11C294.958 230.11 295.226 229.659 295.316 229.389C295.405 229.119 295.495 228.939 295.584 228.669C295.674 228.398 295.763 228.218 295.852 227.948L296.121 227.228L296.389 226.507C296.389 226.507 296.568 225.967 296.657 225.786C296.657 225.516 296.836 225.246 296.836 225.066C296.836 224.796 296.926 224.526 297.015 224.345C297.015 224.075 297.105 223.805 297.194 223.625C297.194 223.355 297.283 223.085 297.373 222.815C297.373 222.544 297.462 222.274 297.552 222.004C297.552 221.734 297.552 221.463 297.641 221.193C297.641 220.923 297.641 220.653 297.731 220.383V219.572C297.731 219.572 297.82 219.032 297.91 218.762C297.91 218.491 297.91 218.221 297.91 217.951V217.141C297.91 217.141 297.91 216.6 297.91 216.33C297.91 216.06 297.91 215.79 297.91 215.52V214.709C297.91 214.709 297.91 214.168 297.91 213.898C297.91 213.628 297.91 213.358 297.91 213.088V212.277C297.91 212.277 297.731 211.737 297.731 211.467C297.731 211.196 297.731 210.926 297.641 210.656C297.641 210.386 297.552 210.116 297.462 209.846C297.462 209.575 297.373 209.305 297.283 209.035C297.283 208.765 297.194 208.494 297.105 208.314L296.926 207.594C296.926 207.594 296.747 207.053 296.747 206.873C296.747 206.603 296.568 206.333 296.479 206.153L296.21 205.432L295.942 204.712C295.942 204.712 295.763 204.261 295.674 203.991C295.584 203.721 295.495 203.541 295.405 203.271C295.316 203.001 295.226 202.821 295.048 202.551L294.69 201.83C294.69 201.83 294.422 201.38 294.332 201.109C294.243 200.839 294.064 200.659 293.974 200.389C293.885 200.119 293.706 199.939 293.617 199.668C293.527 199.398 293.348 199.218 293.169 198.948C292.991 198.768 292.901 198.498 292.722 198.227C292.543 197.957 292.454 197.777 292.275 197.597L291.828 196.966C291.828 196.966 291.47 196.516 291.291 196.336C291.112 196.156 290.934 195.886 290.755 195.706C290.576 195.526 290.397 195.255 290.218 195.075C290.039 194.895 289.86 194.625 289.681 194.445C289.503 194.265 289.324 193.995 289.145 193.814C288.966 193.634 288.787 193.454 288.519 193.184L288.429 193.544ZM275.998 206.063C270.274 200.299 260.973 200.299 255.249 206.063C249.525 211.827 249.525 221.193 255.249 226.957C260.973 232.721 270.274 232.721 275.998 226.957C281.722 221.193 281.722 211.827 275.998 206.063ZM273.762 208.314C269.29 203.811 261.956 203.811 257.485 208.314C253.013 212.817 253.013 220.203 257.485 224.706C261.956 229.209 269.29 229.209 273.762 224.706C278.234 220.203 278.234 212.817 273.762 208.314ZM272.242 209.846C268.575 206.153 262.672 206.153 259.005 209.846C255.338 213.538 255.338 219.482 259.005 223.175C262.672 226.867 268.575 226.867 272.242 223.175C275.908 219.482 275.908 213.538 272.242 209.846ZM269.558 212.547C267.412 210.386 263.924 210.386 261.778 212.547C259.631 214.709 259.631 218.221 261.778 220.383C263.924 222.544 267.412 222.544 269.558 220.383C271.705 218.221 271.705 214.709 269.558 212.547ZM70.7434 172.38C71.1906 172.38 71.7272 172.38 72.1744 172.38H74.2314C74.2314 172.38 74.8575 172.56 75.2152 172.56H75.3046C97.7529 174.721 114.835 193.724 114.835 216.42C114.835 216.69 114.835 217.05 114.835 217.321H105.355C105.355 217.321 105.355 216.69 105.355 216.42V214.799C105.355 214.799 105.355 214.259 105.266 213.988C105.266 213.718 105.266 213.448 105.266 213.178C105.266 212.908 105.266 212.637 105.176 212.367C105.176 212.097 105.176 211.827 105.087 211.557C105.087 211.287 105.087 211.016 104.997 210.746C104.997 210.476 104.908 210.206 104.818 209.935C104.818 209.665 104.729 209.395 104.639 209.125C104.639 208.855 104.55 208.585 104.461 208.314C104.461 208.044 104.371 207.774 104.282 207.504C104.282 207.234 104.103 206.964 104.103 206.693L103.835 205.883C103.835 205.883 103.656 205.342 103.566 205.072C103.477 204.802 103.387 204.532 103.298 204.262L103.03 203.451C103.03 203.451 102.851 202.911 102.672 202.64C102.582 202.37 102.404 202.1 102.314 201.83C102.225 201.56 102.046 201.29 101.956 201.109C101.867 200.839 101.688 200.569 101.599 200.389C101.509 200.119 101.33 199.849 101.241 199.668C101.062 199.398 100.973 199.128 100.794 198.948C100.615 198.678 100.525 198.498 100.347 198.227C100.168 197.957 100.078 197.777 99.8994 197.507C99.7205 197.237 99.6311 197.057 99.4522 196.786C99.2733 196.516 99.0945 196.336 98.9156 196.066C98.7367 195.796 98.5579 195.616 98.379 195.345C98.2001 195.075 98.0212 194.895 97.8424 194.625C97.6635 194.355 97.4846 194.175 97.3057 193.994C97.1269 193.814 96.948 193.544 96.7692 193.364L96.1431 192.733L95.5171 192.103C82.1017 178.594 60.4584 178.594 47.043 192.103C40.1565 199.038 36.758 208.314 37.0263 217.411H27.4567V215.429C27.8144 203.721 32.6439 192.643 41.0509 184.628C47.043 178.954 54.3767 175.081 62.3365 173.37H62.4259C62.4259 173.37 62.9625 173.28 63.3203 173.19H63.5886L64.1252 173.01H64.6618L65.109 172.83H65.6456L66.1822 172.65H67.166L67.6132 172.469H68.5076C68.5076 172.469 69.0442 172.38 69.3125 172.38H70.7434ZM93.9966 193.454C81.3862 180.755 60.995 180.755 48.3846 193.454C35.7742 206.153 35.7742 226.687 48.3846 239.386C60.995 252.085 81.3862 252.085 93.9966 239.386C94.1755 239.206 94.3544 239.026 94.6227 238.756L95.1593 238.125C95.1593 238.125 95.517 237.675 95.6959 237.495C95.8748 237.314 96.0537 237.044 96.2325 236.864C96.4114 236.684 96.5903 236.414 96.7692 236.234L97.2163 235.603C97.2163 235.603 97.5741 235.153 97.6635 234.973C97.8424 234.793 97.9318 234.523 98.1107 234.343C98.2895 234.072 98.379 233.892 98.5579 233.622C98.7367 233.352 98.8262 233.172 99.005 232.902L99.3628 232.181L99.7205 231.46C99.7205 231.46 99.9888 231.01 100.078 230.74C100.168 230.47 100.347 230.29 100.436 230.019C100.525 229.749 100.615 229.569 100.794 229.299C100.883 229.029 100.973 228.849 101.062 228.578C101.151 228.308 101.241 228.128 101.33 227.858C101.42 227.588 101.509 227.408 101.599 227.137C101.688 226.867 101.778 226.597 101.867 226.417C101.867 226.147 102.046 225.876 102.135 225.696C102.135 225.426 102.314 225.156 102.314 224.976C102.314 224.706 102.404 224.435 102.493 224.255C102.493 223.985 102.582 223.715 102.672 223.535C102.672 223.265 102.761 222.995 102.851 222.724C102.851 222.454 102.94 222.184 102.94 221.914C102.94 221.644 102.94 221.374 103.03 221.103C103.03 220.833 103.03 220.563 103.119 220.293C103.119 220.023 103.119 219.752 103.208 219.482V218.671C103.208 218.671 103.298 218.131 103.298 217.861C103.298 217.591 103.298 217.321 103.298 217.05C103.298 216.78 103.298 216.51 103.298 216.24C103.298 215.97 103.298 215.7 103.298 215.429C103.298 215.159 103.298 214.889 103.298 214.619C103.298 214.349 103.298 214.079 103.298 213.808V212.998C103.298 212.998 103.209 212.457 103.119 212.187C103.119 211.917 103.119 211.647 103.03 211.376C103.03 211.106 103.03 210.836 102.94 210.566C102.94 210.296 102.94 210.026 102.851 209.755C102.851 209.485 102.761 209.215 102.672 208.945C102.672 208.675 102.582 208.404 102.493 208.224C102.493 207.954 102.404 207.684 102.314 207.504C102.314 207.234 102.135 206.964 102.135 206.783C102.135 206.513 101.956 206.243 101.867 206.063C101.867 205.793 101.688 205.523 101.599 205.342C101.509 205.162 101.42 204.892 101.33 204.622C101.33 204.352 101.151 204.172 101.062 203.901C100.973 203.631 100.883 203.451 100.794 203.181C100.704 202.911 100.615 202.731 100.436 202.46C100.347 202.19 100.257 202.01 100.078 201.74L99.7205 201.019L99.3628 200.299L99.005 199.578C99.005 199.578 98.7367 199.128 98.5579 198.858C98.379 198.678 98.2895 198.407 98.1107 198.137C97.9318 197.867 97.8424 197.687 97.6635 197.507C97.4846 197.327 97.3952 197.057 97.2163 196.877L96.7692 196.246C96.7692 196.246 96.4114 195.796 96.2325 195.616C96.0537 195.435 95.8748 195.165 95.6959 194.985C95.517 194.805 95.3382 194.535 95.1593 194.355C94.9804 194.175 94.8016 193.904 94.6227 193.724C94.4438 193.544 94.265 193.364 93.9966 193.094V193.454ZM81.5651 205.973C75.8413 200.209 66.54 200.209 60.8161 205.973C55.0922 211.737 55.0922 221.103 60.8161 226.867C66.54 232.631 75.8413 232.631 81.5651 226.867C87.289 221.103 87.289 211.737 81.5651 205.973ZM79.3292 208.224C74.8575 203.721 67.5238 203.721 63.052 208.224C58.5802 212.727 58.5802 220.113 63.052 224.616C67.5238 229.119 74.8575 229.119 79.3292 224.616C83.801 220.113 83.801 212.727 79.3292 208.224ZM77.8088 209.755C74.142 206.063 68.2392 206.063 64.5724 209.755C60.9055 213.448 60.9055 219.392 64.5724 223.085C68.2392 226.777 74.142 226.777 77.8088 223.085C81.4757 219.392 81.4757 213.448 77.8088 209.755ZM75.1258 212.457C72.9793 210.296 69.4913 210.296 67.3449 212.457C65.1984 214.619 65.1984 218.131 67.3449 220.293C69.4913 222.454 72.9793 222.454 75.1258 220.293C77.2722 218.131 77.2722 214.619 75.1258 212.457ZM150.341 0H237.719V84.5687H150.341V0ZM223.231 7.20516V76.7333H229.581V75.3822H225.198V12.6988H229.581V7.20516H223.231ZM218.67 76.7333V75.3822H214.287V12.6988H218.67V7.20516H212.32V76.7333H218.67ZM207.759 76.7333V75.3822H203.376V12.6988H207.759V7.20516H201.409V76.7333H207.759ZM196.847 76.7333V75.3822H192.465V12.6988H196.847V7.20516H190.498V76.7333H196.847ZM185.936 76.7333V75.3822H181.554V12.6988H185.936V7.20516H179.586V76.7333H185.936ZM175.025 76.7333V75.3822H170.643V12.6988H175.025V7.20516H168.675V76.7333H175.025ZM164.114 76.7333V75.3822H159.732V12.6988H164.114V7.20516H157.764V76.7333H164.114ZM195.327 87.1806H282.705V171.749H195.327V87.1806ZM268.306 94.3855V163.914H274.656V162.563H270.274V99.8792H274.656V94.3855H268.306ZM263.656 163.914V162.563H259.273V99.8792H263.656V94.3855H257.306V163.914H263.656ZM252.745 163.914V162.563H248.362V99.8792H252.745V94.3855H246.395V163.914H252.745ZM241.833 163.914V162.563H237.451V99.8792H241.833V94.3855H235.484V163.914H241.833ZM230.922 163.914V162.563H226.54V99.8792H230.922V94.3855H224.662V163.914H230.922ZM220.011 163.914V162.563H215.629V99.8792H220.011V94.3855H213.661V163.914H220.011ZM209.1 163.914V162.563H204.718V99.8792H209.1V94.3855H202.75V163.914H209.1ZM94.9804 91.5034V116.361H102.672V174.361H245.769C241.386 176.432 237.272 179.314 233.695 182.737C231.101 185.258 228.776 188.05 226.898 191.023H110.006C106.249 185.168 101.151 180.215 95.2487 176.613L94.7121 176.252L94.4438 176.072H94.3544L93.8178 175.712L93.46 175.532L92.9234 175.171L92.6551 174.991L92.2079 174.721L91.7608 174.541L91.3136 174.271L90.777 174.001L90.3298 173.821L89.7932 173.55L89.4355 173.37L88.8094 173.1L88.3622 172.92L87.6467 172.65H87.289L86.5735 172.289H86.3946C86.3946 172.289 85.858 172.019 85.5897 171.929H85.3214C85.3214 171.929 84.7848 171.659 84.5165 171.569H84.3376C84.3376 171.569 83.7116 171.389 83.4433 171.299H83.3538C83.3538 171.299 82.7278 171.119 82.4595 171.029H82.37C82.37 171.029 81.744 170.849 81.3862 170.758C81.3862 170.758 80.6708 170.578 80.313 170.578C80.313 170.578 79.5975 170.398 79.2398 170.398C79.2398 170.398 78.5243 170.308 78.1666 170.218H78.0771C78.0771 170.218 77.4511 170.128 77.0934 170.038C77.0934 170.038 76.3779 169.948 76.0201 169.948H75.8413C75.8413 169.948 75.2152 169.948 74.8575 169.858H73.8737C73.8737 169.858 73.3371 169.858 73.1582 169.858H72.8005C72.2638 169.858 71.7272 169.858 71.1906 169.858H68.597L67.8815 170.038H66.8977L66.3611 170.218H65.8245L65.1984 170.398H64.7513L64.1252 170.578H63.5886L63.2309 170.758L62.3365 170.939H62.2471C53.7507 172.74 45.9698 176.883 39.7093 182.917C30.7658 191.473 25.668 203.181 25.3997 215.52V217.591H0.80492V217.411H0.536591V217.23H0.357716V217.05H0.178875V216.87H0.0894204V216.69H0V216.51V216.33V216.15V215.97V215.79V215.609V190.302V149.864L31.6601 90.8729C33.27 88.1711 33.5383 86.8203 39.441 86.5501H89.6143C93.2812 86.5501 95.2487 88.2612 95.6959 91.5034H94.9804ZM105.444 87.1806V171.749H192.823V87.1806H105.444ZM178.334 94.3855V163.914H184.684V162.563H180.302V99.8792H184.684V94.3855H178.334ZM173.684 163.914V162.563H169.301V99.8792H173.684V94.3855H167.334V163.914H173.684ZM162.772 163.914V162.563H158.48V99.8792H162.772V94.3855H156.423V163.914H162.772ZM151.861 163.914V162.563H147.479V99.8792H151.861V94.3855H145.511V163.914H151.861ZM140.95 163.914V162.563H136.568V99.8792H140.95V94.3855H134.6V163.914H140.95ZM130.039 163.914V162.563H125.657V99.8792H130.039V94.3855H123.689V163.914H130.039ZM119.128 163.914V162.563H114.746V99.8792H119.128V94.3855H112.778V163.914H119.128ZM26.1151 175.622C41.1403 159.681 63.7675 153.106 84.7848 158.42L85.232 97.3574C85.232 95.7363 84.8742 94.7456 83.6221 94.5655H41.0509C38.3678 94.5655 37.4735 94.7457 35.7742 98.2581L8.49634 149.324V175.802H26.2046L26.1151 175.622ZM312.04 217.23H318.48C319.285 217.23 320 216.51 320 215.7V200.659C320 199.848 319.285 199.128 318.48 199.128H308.821C310.967 204.442 312.04 210.296 312.04 216.33C312.04 216.6 312.04 216.96 312.04 217.23ZM285.657 174.181C293.348 177.873 299.877 183.727 304.528 190.842H318.569C319.374 190.842 320 190.212 320 189.401V175.622C320 174.811 319.374 174.181 318.569 174.181H285.657ZM111.347 193.004C112.063 194.265 112.689 195.526 113.315 196.877H223.499C224.125 195.526 224.751 194.265 225.467 193.004H111.258H111.347ZM305.869 193.004C306.585 194.265 307.211 195.526 307.837 196.877H311.593V193.004H305.78H305.869Z" fill="#5A514E"/>
</g>
</svg>
