<svg width="134" height="64" viewBox="0 0 134 64" fill="none" xmlns="http://www.w3.org/2000/svg">
<g clip-path="url(#clip0_85_1816)">
<path fill-rule="evenodd" clip-rule="evenodd" d="M77.6347 58.6136H63.3994V53.4244C63.3994 53.4244 63.3994 53.3333 63.3994 53.2878V50.496H77.6347C78.1805 50.496 78.6353 50.9512 78.6353 51.4974V57.6121C78.6353 58.1584 78.1805 58.6136 77.6347 58.6136Z" fill="#20354A"/>
<path d="M67.432 2.0332H69.236C69.4331 2.0332 69.5998 2.20011 69.5998 2.39736V58.2039C69.5998 58.4011 69.4331 58.5681 69.236 58.5681H67.432C67.2349 58.5681 67.0681 58.4011 67.0681 58.2039V2.39736C67.0681 2.20011 67.2349 2.0332 67.432 2.0332Z" fill="#20354A"/>
<path d="M65.5825 2.0332H63.7633C63.5623 2.0332 63.3994 2.19624 63.3994 2.39736V58.2191C63.3994 58.4202 63.5623 58.5832 63.7633 58.5832H65.5825C65.7834 58.5832 65.9463 58.4202 65.9463 58.2191V2.39736C65.9463 2.19624 65.7834 2.0332 65.5825 2.0332Z" fill="#20354A"/>
<path fill-rule="evenodd" clip-rule="evenodd" d="M117.354 24.3224H116.111C115.429 24.3224 115.005 24.899 114.868 25.5666L112.973 34.9588C112.837 35.6264 113.534 36.203 114.216 36.203H117.339C118.021 36.203 118.582 35.6416 118.582 34.9588V25.5666C118.582 24.8839 118.021 24.3224 117.339 24.3224H117.354Z" fill="#ED7425"/>
<path fill-rule="evenodd" clip-rule="evenodd" d="M97.8585 39.0555H84.3508L91.1577 30.6344L88.6411 29.193L84.0325 34.5946H82.85L78.969 42.2722H96.4183L97.8585 39.0555Z" fill="#20354A"/>
<path fill-rule="evenodd" clip-rule="evenodd" d="M122.372 34.2305H101.845C100.36 34.2305 99.2985 35.596 98.6769 36.9313L93.5832 47.7345C92.9464 49.0697 94.796 50.4353 96.2817 50.4353H122.387C123.873 50.4353 125.086 49.2215 125.086 47.7345V36.9313C125.086 35.4443 123.873 34.2305 122.387 34.2305H122.372Z" fill="#ED7425"/>
<path fill-rule="evenodd" clip-rule="evenodd" d="M116.581 48.569H82.289C78.8022 48.569 74.3906 45.3523 75.9369 42.2115L90.2329 13.3219C91.7792 10.1963 94.6748 6.96442 98.1768 6.96442H116.596C120.083 6.96442 122.948 9.83213 122.948 13.3219V42.2115C122.948 45.7013 120.083 48.569 116.596 48.569H116.581ZM78.8022 43.5619C78.9993 44.0929 80.1211 44.7757 80.5608 44.9729C81.0762 45.2005 81.7129 45.3978 82.289 45.3978H116.581C118.325 45.3978 119.75 43.9564 119.75 42.2266V13.3219C119.75 11.577 118.309 10.1508 116.581 10.1508H98.1616C95.9634 10.1508 93.932 13.0033 93.0678 14.733L78.8022 43.577V43.5619Z" fill="#20354A"/>
<path fill-rule="evenodd" clip-rule="evenodd" d="M122.418 59.8122H80.4697C78.7263 59.8122 77.3013 58.386 77.3013 56.6411V42.2873H111.214C112.958 42.2873 113.852 40.77 114.383 39.1162L115.975 34.1394H122.418C124.161 34.1394 125.586 35.5657 125.586 37.3106V56.6411C125.586 58.386 124.161 59.8122 122.418 59.8122Z" fill="#5A514E"/>
<path d="M87.276 28.2021L87.6727 27.5204C87.7643 27.363 87.9509 27.3138 88.1081 27.4054L95.9287 31.9647C96.0859 32.0563 96.1351 32.243 96.0435 32.4004L95.6467 33.0821C95.5552 33.2395 95.3686 33.2887 95.2114 33.1971L87.3908 28.6379C87.2336 28.5462 87.1844 28.3595 87.276 28.2021Z" fill="#435D76"/>
<path d="M60.0339 0.440002H72.9655C73.2232 0.440002 73.4354 0.652425 73.4354 0.910368V2.65527C73.4354 2.91321 73.2232 3.12564 72.9655 3.12564H60.0339C59.7762 3.12564 59.564 2.91321 59.564 2.65527V0.910368C59.564 0.652425 59.7762 0.440002 60.0339 0.440002Z" fill="#AAD3EF"/>
<path fill-rule="evenodd" clip-rule="evenodd" d="M63.3995 4.14223L61.9593 3.14081H60.792L63.3995 4.96158V4.14223Z" fill="#85BFE9"/>
<path fill-rule="evenodd" clip-rule="evenodd" d="M69.5999 4.05123L71.0401 3.0498H72.2074L69.5999 4.88575V4.05123Z" fill="#85BFE9"/>
<path d="M60.034 8.66382H72.9655C73.2232 8.66382 73.4355 8.87624 73.4355 9.13418V10.8791C73.4355 11.137 73.2232 11.3646 72.9503 11.3646H60.0188C59.7611 11.3646 59.5488 11.1522 59.5488 10.8943V9.14936C59.5488 8.89141 59.7611 8.67899 60.0188 8.67899L60.034 8.66382Z" fill="#AAD3EF"/>
<path fill-rule="evenodd" clip-rule="evenodd" d="M63.3995 12.366L61.9593 11.3646H60.792L63.3995 13.1854V12.366Z" fill="#85BFE9"/>
<path fill-rule="evenodd" clip-rule="evenodd" d="M69.5999 12.2902L71.0401 11.2736H72.2074L69.5999 13.1095V12.2902Z" fill="#85BFE9"/>
<path d="M114.095 52.8933H87.8223V59.8122H114.095V52.8933Z" fill="#5A514E"/>
<path fill-rule="evenodd" clip-rule="evenodd" d="M121.811 41.9384H122.221C122.221 41.9384 122.372 41.9535 122.448 41.9535H122.706L122.827 41.9839H122.964L123.115 42.0142H123.267L123.418 42.0597H123.54L123.706 42.1053L123.843 42.1356H123.919C123.994 42.166 124.07 42.1811 124.161 42.1963H124.192C126.375 42.6515 128.451 43.6984 130.18 45.3523C132.636 47.7041 133.909 50.8146 133.985 53.9706H121.978L121.69 54.2589V59.8274H110.729C109.88 58.1584 109.395 56.2617 109.395 54.2589C109.395 47.8558 114.277 42.606 120.523 42.0142H120.553L120.811 41.9839H121.084C121.084 41.9839 121.205 41.9687 121.266 41.9535H121.372C121.508 41.9535 121.645 41.9535 121.781 41.9535L121.811 41.9384Z" fill="#77716F"/>
<path fill-rule="evenodd" clip-rule="evenodd" d="M114.58 47.0972C111.123 50.5566 110.699 55.8824 113.291 59.797H114.686V53.9402H131.787C131.711 51.4518 130.741 48.9938 128.83 47.0972C124.889 43.1522 118.506 43.1522 114.565 47.0972H114.58Z" fill="#5A514E"/>
<path fill-rule="evenodd" clip-rule="evenodd" d="M115.035 47.8862C111.351 51.5733 111.351 57.5514 115.035 61.2385C118.719 64.9256 124.692 64.9256 128.376 61.2385C132.059 57.5514 132.059 51.5733 128.376 47.8862C124.692 44.1991 118.719 44.1991 115.035 47.8862Z" fill="#344453"/>
<path fill-rule="evenodd" clip-rule="evenodd" d="M124.798 57.339C126.511 55.6245 126.511 52.863 124.798 51.1484C123.085 49.4338 120.326 49.4338 118.613 51.1484L124.798 57.339Z" fill="#1A2A3A"/>
<path fill-rule="evenodd" clip-rule="evenodd" d="M115.035 47.5676C111.351 51.2546 111.351 57.2328 115.035 60.9199C118.719 64.6069 124.692 64.6069 128.376 60.9199L115.035 47.5676Z" fill="#1A2A3A"/>
<path fill-rule="evenodd" clip-rule="evenodd" d="M118.612 51.1484C116.899 52.863 116.899 55.6245 118.612 57.3391C120.326 59.0536 123.085 59.0536 124.798 57.3391L118.612 51.1484Z" fill="#344453"/>
<path fill-rule="evenodd" clip-rule="evenodd" d="M80.3788 41.9384H79.9695C79.9695 41.9384 79.8179 41.9535 79.7421 41.9535H79.4844L79.3631 41.9839H79.2267L79.0751 42.0142H78.9235L78.7719 42.0597H78.6506L78.4838 42.1053L78.3474 42.1356H78.2716C78.1958 42.166 78.12 42.1811 78.0442 42.1963H78.0139C75.8308 42.6515 73.7539 43.6984 72.0256 45.3523C69.5697 47.7041 68.2963 50.8146 68.2205 53.9706H80.2272L80.5153 54.2589V59.8274H91.476C92.325 58.1584 92.8101 56.2617 92.8101 54.2589C92.8101 47.8558 87.9286 42.606 81.6826 42.0142H81.6523L81.3946 41.9839H81.1217C81.1217 41.9839 81.0004 41.9687 80.9398 41.9535H80.8337C80.6972 41.9535 80.5608 41.9535 80.4243 41.9535L80.3788 41.9384Z" fill="#77716F"/>
<path fill-rule="evenodd" clip-rule="evenodd" d="M119.734 52.2712C118.643 53.3637 118.643 55.1238 119.734 56.2162C120.826 57.3087 122.585 57.3087 123.676 56.2162L119.734 52.2712Z" fill="#AAD3EF"/>
<path fill-rule="evenodd" clip-rule="evenodd" d="M123.676 56.2162C124.768 55.1237 124.768 53.3636 123.676 52.2712C122.584 51.1787 120.826 51.1787 119.734 52.2712L123.676 56.2162Z" fill="#E1EFFA"/>
<path fill-rule="evenodd" clip-rule="evenodd" d="M73.3444 47.1124C71.4494 49.009 70.464 51.467 70.3882 53.9554H88.08V59.8122H88.8835C91.4759 55.8976 91.0514 50.5718 87.5949 47.1124C83.6533 43.1674 77.2709 43.1674 73.3292 47.1124H73.3444Z" fill="#5A514E"/>
<path fill-rule="evenodd" clip-rule="evenodd" d="M87.1553 61.1626C83.4714 64.8497 77.4983 64.8497 73.8144 61.1626C70.1305 57.4756 70.1305 51.4974 73.8144 47.8103C77.4983 44.1233 83.4714 44.1233 87.1553 47.8103C90.8392 51.4974 90.8392 57.4756 87.1553 61.1626Z" fill="#344453"/>
<path fill-rule="evenodd" clip-rule="evenodd" d="M87.1402 60.9047C83.4563 64.5917 77.4832 64.5917 73.7993 60.9047C70.1154 57.2176 70.1154 51.2394 73.7993 47.5524L87.1402 60.9047Z" fill="#1A2A3A"/>
<path fill-rule="evenodd" clip-rule="evenodd" d="M77.3923 51.1484C79.1054 49.4338 81.8646 49.4338 83.5777 51.1484C85.2907 52.863 85.2907 55.6245 83.5777 57.339L77.3923 51.1484Z" fill="#1A2A3A"/>
<path fill-rule="evenodd" clip-rule="evenodd" d="M83.5624 57.3391C81.8493 59.0536 79.0902 59.0536 77.3771 57.3391C75.664 55.6245 75.664 52.863 77.3771 51.1484L83.5624 57.3391Z" fill="#344453"/>
<path fill-rule="evenodd" clip-rule="evenodd" d="M78.5142 52.2712C77.4227 53.3637 77.4227 55.1238 78.5142 56.2162C79.6057 57.3087 81.3643 57.3087 82.4558 56.2162L78.5142 52.2712Z" fill="#AAD3EF"/>
<path fill-rule="evenodd" clip-rule="evenodd" d="M82.4406 56.2162C83.5322 55.1237 83.5322 53.3636 82.4406 52.2712C81.3491 51.1787 79.5905 51.1787 78.499 52.2712L82.4406 56.2162Z" fill="#E1EFFA"/>
<path fill-rule="evenodd" clip-rule="evenodd" d="M120.553 53.0906C119.916 53.7278 119.916 54.7444 120.553 55.3817C121.19 56.019 122.221 56.019 122.842 55.3817L120.553 53.0906Z" fill="#1A2A3A"/>
<path fill-rule="evenodd" clip-rule="evenodd" d="M122.857 55.3969C123.494 54.7596 123.494 53.743 122.857 53.1058C122.221 52.4685 121.19 52.4685 120.568 53.1058L122.857 55.3969Z" fill="#344453"/>
<path fill-rule="evenodd" clip-rule="evenodd" d="M79.3328 53.0906C78.696 53.7278 78.696 54.7444 79.3328 55.3817C79.9695 56.019 81.0004 56.019 81.6219 55.3817L79.3328 53.0906Z" fill="#1A2A3A"/>
<path fill-rule="evenodd" clip-rule="evenodd" d="M81.6219 55.3969C82.2587 54.7596 82.2587 53.743 81.6219 53.1058C80.9852 52.4685 79.9543 52.4685 79.3328 53.1058L81.6219 55.3969Z" fill="#344453"/>
<path fill-rule="evenodd" clip-rule="evenodd" d="M59.564 10.0142V10.8791C59.564 11.137 59.7762 11.3646 60.034 11.3646H72.9655C73.2232 11.3646 73.4355 11.1522 73.4355 10.8791V10.0142H59.5488H59.564Z" fill="#85BFE9"/>
<path fill-rule="evenodd" clip-rule="evenodd" d="M59.564 1.79041V2.65527C59.564 2.91321 59.7762 3.12564 60.034 3.12564H72.9655C73.2232 3.12564 73.4355 2.91321 73.4355 2.65527V1.79041H59.5488H59.564Z" fill="#85BFE9"/>
<path fill-rule="evenodd" clip-rule="evenodd" d="M113.14 34.2305C112.73 35.9147 111.457 36.9464 110.077 36.9616H98.677V36.9313C99.3137 35.596 100.375 34.2456 101.845 34.2456H113.155L113.14 34.2305Z" fill="#FFA146"/>
<path fill-rule="evenodd" clip-rule="evenodd" d="M70.5551 22.6231H47.057C46.5112 22.6231 46.0564 22.1679 46.0564 21.6216V19.8767L60.4585 18.2836C61.0042 18.2229 61.459 17.8284 61.459 17.2821V14.4903H70.5399C71.0857 14.4903 71.5405 14.9455 71.5405 15.4917V21.6065C71.5405 22.1527 71.0857 22.6079 70.5399 22.6079L70.5551 22.6231Z" fill="#1A2A3A"/>
<path d="M32.2759 17.6766H59.4731C59.9885 17.6766 60.413 18.1015 60.413 18.6174V22.183C60.413 22.6989 59.9885 23.1238 59.4731 23.1238H32.2759C31.7604 23.1238 31.3359 22.6989 31.3359 22.183V18.6174C31.3359 18.1015 31.7604 17.6766 32.2759 17.6766Z" fill="#20354A"/>
<path fill-rule="evenodd" clip-rule="evenodd" d="M59.4731 23.1238H32.2759C31.7604 23.1238 31.3359 22.6989 31.3359 22.183V20.4078H60.4281V22.183C60.4281 22.6989 60.0037 23.1238 59.4882 23.1238H59.4731Z" fill="#1A2A3A"/>
<path d="M46.1776 57.9156H0V58.9018H46.1776V57.9156Z" fill="#1A2A3A"/>
<path d="M5.62433 58.9171H0.197021V59.9033H5.62433V58.9171Z" fill="#20354A"/>
<path d="M5.82147 59.9033H0V62.331H5.82147V59.9033Z" fill="#435D76"/>
<path d="M46.1776 62.331H0V63.3172H46.1776V62.331Z" fill="#1A2A3A"/>
<path d="M45.9805 58.9171H40.5532V59.9033H45.9805V58.9171Z" fill="#20354A"/>
<path d="M46.1777 59.9033H40.3562V62.331H46.1777V59.9033Z" fill="#435D76"/>
<path d="M25.8026 58.9171H20.3752V59.9033H25.8026V58.9171Z" fill="#20354A"/>
<path d="M25.9995 59.9033H20.178V62.331H25.9995V59.9033Z" fill="#435D76"/>
<path d="M43.6916 40.3148H24.0896V57.9156H43.6916V40.3148Z" fill="#FFA146"/>
<path d="M43.9492 40.3148H23.8318V43.2432H43.9492V40.3148Z" fill="#FFA146"/>
<path fill-rule="evenodd" clip-rule="evenodd" d="M43.7068 57.9156H36.3389L24.0896 43.2584H43.7068V57.9156Z" fill="#ED7425"/>
<path fill-rule="evenodd" clip-rule="evenodd" d="M42.0238 40.3148H39.8711V44.366L40.3259 44.1536L40.7504 44.3509L41.3265 44.017L42.0238 44.366V40.3148Z" fill="#DD3E13"/>
<path fill-rule="evenodd" clip-rule="evenodd" d="M27.9401 40.3148H25.7874V44.366L26.2422 44.1536L26.6666 44.3509L27.2427 44.017L27.9401 44.366V40.3148Z" fill="#DD3E13"/>
<path d="M23.3163 40.3148H3.71436V57.9156H23.3163V40.3148Z" fill="#FFA146"/>
<path d="M23.574 40.3148H3.45654V43.2432H23.574V40.3148Z" fill="#FFA146"/>
<path fill-rule="evenodd" clip-rule="evenodd" d="M23.3163 57.9156H15.9637L3.71436 43.2584H23.3163V57.9156Z" fill="#ED7425"/>
<path fill-rule="evenodd" clip-rule="evenodd" d="M21.6334 40.3148H19.4807V44.366L19.9507 44.1536L20.3752 44.3509L20.9512 44.017L21.6334 44.366V40.3148Z" fill="#DD3E13"/>
<path fill-rule="evenodd" clip-rule="evenodd" d="M7.54971 40.3148H5.39697V44.366L5.86694 44.1536L6.29142 44.3509L6.8675 44.017L7.54971 44.366V40.3148Z" fill="#DD3E13"/>
<path d="M52.7116 0H33.0945V17.6008H52.7116V0Z" fill="#FFA146"/>
<path d="M52.9541 0H32.8367V2.9284H52.9541V0Z" fill="#FFA146"/>
<path fill-rule="evenodd" clip-rule="evenodd" d="M52.6965 17.6008H45.3438L33.0945 2.92841H52.6965V17.6008Z" fill="#ED7425"/>
<path fill-rule="evenodd" clip-rule="evenodd" d="M51.0136 0H48.8608V4.05121L49.3308 3.83879L49.7401 4.03604L50.3314 3.68706L51.0136 4.05121V0Z" fill="#DD3E13"/>
<path fill-rule="evenodd" clip-rule="evenodd" d="M36.9298 0H34.7771V4.05121L35.2471 3.83879L35.6564 4.03604L36.2476 3.68706L36.9298 4.05121V0Z" fill="#DD3E13"/>
<path d="M23.3163 22.7292H3.71436V40.33H23.3163V22.7292Z" fill="#FFA146"/>
<path d="M23.574 22.7292H3.45654V25.6577H23.574V22.7292Z" fill="#FFA146"/>
<path fill-rule="evenodd" clip-rule="evenodd" d="M23.3163 40.3148H15.9637L3.71436 25.6577H23.3163V40.3148Z" fill="#ED7425"/>
<path fill-rule="evenodd" clip-rule="evenodd" d="M21.6334 22.7292H19.4807V26.7805L19.9507 26.5529L20.3752 26.7653L20.9512 26.4163L21.6334 26.7805V22.7292Z" fill="#DD3E13"/>
<path fill-rule="evenodd" clip-rule="evenodd" d="M7.54971 22.7292H5.39697V26.7805L5.86694 26.5529L6.29142 26.7653L6.8675 26.4163L7.54971 26.7805V22.7292Z" fill="#DD3E13"/>
</g>
<defs>
<clipPath id="clip0_85_1816">
<rect width="134" height="64" fill="white"/>
</clipPath>
</defs>
</svg>
